<svg xmlns="http://www.w3.org/2000/svg" xmlns:xlink="http://www.w3.org/1999/xlink" width="736" zoomAndPan="magnify" viewBox="0 0 552 552.000001" height="736" preserveAspectRatio="xMidYMid meet" version="1.0"><defs><clipPath id="9dc46afc13"><path d="M 0.5 0 L 551.5 0 L 551.5 551 L 0.5 551 Z M 0.5 0 " clip-rule="nonzero"/></clipPath><clipPath id="8813167cd4"><path d="M 50.171875 14.804688 L 501.605469 14.804688 L 501.605469 535.859375 L 50.171875 535.859375 Z M 50.171875 14.804688 " clip-rule="nonzero"/></clipPath><clipPath id="5f6f51ed0e"><path d="M 50.171875 145 L 277 145 L 277 535.859375 L 50.171875 535.859375 Z M 50.171875 145 " clip-rule="nonzero"/></clipPath><clipPath id="2415458854"><path d="M 276 145 L 501.605469 145 L 501.605469 535.859375 L 276 535.859375 Z M 276 145 " clip-rule="nonzero"/></clipPath><clipPath id="f17ef4b9e1"><path d="M 94.441406 65.910156 L 457.535156 65.910156 L 457.535156 485.148438 L 94.441406 485.148438 Z M 94.441406 65.910156 " clip-rule="nonzero"/></clipPath><clipPath id="61d89162c2"><path d="M 94.441406 170 L 277 170 L 277 485.148438 L 94.441406 485.148438 Z M 94.441406 170 " clip-rule="nonzero"/></clipPath><clipPath id="4f915b37c2"><path d="M 276 170 L 457.535156 170 L 457.535156 485.148438 L 276 485.148438 Z M 276 170 " clip-rule="nonzero"/></clipPath></defs><g clip-path="url(#9dc46afc13)"><path fill="#ffffff" d="M 0.5 0 L 551.5 0 L 551.5 551 L 0.5 551 Z M 0.5 0 " fill-opacity="1" fill-rule="nonzero"/><path fill="#ffffff" d="M 0.5 0 L 551.5 0 L 551.5 551 L 0.5 551 Z M 0.5 0 " fill-opacity="1" fill-rule="nonzero"/></g><g clip-path="url(#8813167cd4)"><path fill="#a78bfa" d="M 276.039062 14.761719 L 501.808594 145.109375 L 501.808594 405.804688 L 276.039062 536.152344 L 50.269531 405.804688 L 50.269531 145.109375 Z M 276.039062 14.761719 " fill-opacity="1" fill-rule="evenodd"/></g><g clip-path="url(#5f6f51ed0e)"><path fill="#faef8b" d="M 276.007812 536.132812 L 50.269531 405.804688 L 50.269531 145.109375 L 50.304688 145.089844 L 276.039062 275.417969 L 276.039062 536.113281 Z M 276.007812 536.132812 " fill-opacity="1" fill-rule="evenodd"/></g><g clip-path="url(#2415458854)"><path fill="#8bc5fa" d="M 276.039062 275.417969 L 501.777344 145.089844 L 501.808594 145.109375 L 501.808594 405.804688 L 276.074219 536.132812 L 276.039062 536.113281 Z M 276.039062 275.417969 " fill-opacity="1" fill-rule="evenodd"/></g><g clip-path="url(#f17ef4b9e1)"><path fill="#8bc5fa" d="M 276.03125 65.875 L 457.546875 170.671875 L 457.546875 380.265625 L 276.03125 485.0625 L 94.519531 380.265625 L 94.519531 170.671875 Z M 276.03125 65.875 " fill-opacity="1" fill-rule="evenodd"/></g><g clip-path="url(#61d89162c2)"><path fill="#a78bfa" d="M 276.007812 485.046875 L 94.519531 380.265625 L 94.519531 170.671875 L 94.546875 170.65625 L 276.03125 275.4375 L 276.03125 485.03125 Z M 276.007812 485.046875 " fill-opacity="1" fill-rule="evenodd"/></g><g clip-path="url(#4f915b37c2)"><path fill="#faef8b" d="M 276.03125 275.4375 L 457.519531 170.65625 L 457.546875 170.671875 L 457.546875 380.265625 L 276.058594 485.046875 L 276.03125 485.03125 Z M 276.03125 275.4375 " fill-opacity="1" fill-rule="evenodd"/></g></svg>