<svg xmlns="http://www.w3.org/2000/svg" xmlns:xlink="http://www.w3.org/1999/xlink" width="1024" zoomAndPan="magnify" viewBox="0 0 768 767.999994" height="1024" preserveAspectRatio="xMidYMid meet" version="1.0"><path fill="#60b24f" d="M 116.894531 201.324219 C 116.894531 201.324219 110.210938 189.976562 122.4375 168.429688 C 134.664062 146.792969 165.453125 108.796875 165.453125 108.796875 L 213.042969 67.109375 L 224.390625 66.578125 C 224.390625 66.578125 227.90625 47.757812 278.222656 34.214844 C 328.539062 20.667969 358.269531 14.425781 358.269531 14.425781 L 391.785156 9.148438 L 399.4375 16.09375 C 399.4375 16.09375 410.960938 0.703125 445.003906 9.148438 C 478.957031 17.589844 543.261719 35.882812 543.261719 35.882812 C 543.261719 35.882812 576.160156 52.507812 579.152344 71.945312 C 579.152344 71.945312 617.238281 76.78125 650.402344 143.273438 C 683.566406 209.765625 677.054688 218.5625 677.054688 218.5625 C 677.054688 218.5625 713.824219 259.8125 713.121094 310.382812 C 712.417969 360.957031 703.972656 407.21875 703.972656 407.21875 C 703.972656 407.21875 709.953125 469.929688 697.902344 508.890625 C 685.851562 547.855469 670.105469 577.496094 670.105469 577.496094 L 651.019531 598.429688 L 641.253906 623.582031 C 641.253906 623.582031 620.933594 663.335938 575.457031 686.90625 C 529.976562 710.480469 505.613281 723.671875 505.613281 723.671875 C 505.613281 723.671875 488.371094 748.5625 450.195312 754.015625 C 412.019531 759.46875 365.660156 763.25 365.660156 763.25 L 298.632812 732.292969 L 288.601562 715.050781 C 288.601562 715.050781 251.746094 712.148438 230.546875 698.695312 C 209.347656 685.238281 172.664062 651.199219 172.664062 651.199219 C 172.664062 651.199219 151.289062 623.230469 146.453125 610.039062 C 141.613281 596.84375 139.589844 581.101562 139.589844 581.101562 C 139.589844 581.101562 118.390625 553.75 108.277344 532.726562 C 98.246094 511.617188 64.820312 418.742188 80.832031 392.707031 C 80.832031 392.707031 52.769531 315.398438 74.671875 271.949219 C 96.578125 228.5 116.894531 201.324219 116.894531 201.324219 Z M 116.894531 201.324219 " fill-opacity="1" fill-rule="nonzero"/><path fill="#efebbd" d="M 341.382812 199.386719 C 341.382812 199.386719 293 226.917969 294.410156 241.957031 C 295.816406 256.996094 335.488281 312.847656 336.542969 297.71875 C 337.597656 282.589844 305.667969 251.71875 321.855469 233.25 C 338.128906 214.867188 357.128906 195.253906 341.382812 199.386719 Z M 341.382812 199.386719 " fill-opacity="1" fill-rule="nonzero"/><path fill="#efebbd" d="M 329.066406 325.246094 C 329.066406 325.246094 289.484375 351.371094 290.625 368.433594 C 291.769531 385.496094 324.40625 428.503906 322.207031 415.3125 C 320.007812 402.117188 302.675781 375.378906 309.800781 364.035156 C 317.015625 352.777344 343.492188 318.476562 329.066406 325.246094 Z M 329.066406 325.246094 " fill-opacity="1" fill-rule="nonzero"/><path fill="#efebbd" d="M 318.863281 442.839844 C 318.863281 442.839844 287.898438 474.152344 290.625 489.984375 C 293.265625 505.8125 338.65625 557.089844 333.289062 538.972656 C 327.921875 520.855469 302.589844 492.972656 312.089844 478.636719 C 321.589844 464.386719 336.542969 429.648438 318.863281 442.839844 Z M 318.863281 442.839844 " fill-opacity="1" fill-rule="nonzero"/><path fill="#efebbd" d="M 263.886719 119.878906 C 263.886719 119.878906 202.046875 180.214844 202.046875 196.046875 C 202.046875 211.878906 266.085938 236.769531 255.96875 222.429688 C 245.765625 208.09375 221.308594 187.339844 238.992188 162.886719 C 256.671875 138.4375 282.007812 112.316406 263.886719 119.878906 Z M 263.886719 119.878906 " fill-opacity="1" fill-rule="nonzero"/><path fill="#efebbd" d="M 182.078125 229.554688 C 182.078125 229.554688 148.125 336.59375 157.535156 352.074219 C 166.949219 367.554688 191.84375 343.015625 249.898438 347.585938 C 307.957031 352.074219 210.667969 323.050781 181.636719 334.042969 C 152.699219 344.859375 213.394531 209.941406 182.078125 229.554688 Z M 182.078125 229.554688 " fill-opacity="1" fill-rule="nonzero"/><path fill="#efebbd" d="M 157.976562 386.460938 C 157.976562 386.460938 155.6875 488.222656 175.65625 491.390625 C 195.625 494.554688 222.804688 479.429688 245.414062 480.21875 C 268.019531 481.011719 217.527344 464.035156 188.5 474.152344 C 159.472656 484.265625 183.308594 359.902344 157.976562 386.460938 Z M 157.976562 386.460938 " fill-opacity="1" fill-rule="nonzero"/><path fill="#efebbd" d="M 185.859375 529.210938 C 185.859375 529.210938 212.601562 596.667969 258.960938 617.425781 C 258.960938 617.425781 265.734375 617.777344 273.648438 609.511719 C 281.566406 601.242188 283.851562 587.257812 297.046875 577.847656 C 310.242188 568.4375 278.925781 571.074219 268.371094 584.265625 C 257.816406 597.460938 188.5 505.460938 185.859375 529.210938 Z M 185.859375 529.210938 " fill-opacity="1" fill-rule="nonzero"/><path fill="#efebbd" d="M 322.644531 584.445312 C 322.644531 584.445312 283.765625 634.3125 296.257812 648.296875 C 308.660156 662.28125 358.445312 681.367188 387.125 679.34375 C 415.800781 677.320312 320.796875 660.875 323.4375 632.027344 C 326.078125 603.175781 344.546875 555.332031 322.644531 584.445312 Z M 322.644531 584.445312 " fill-opacity="1" fill-rule="nonzero"/><path fill="#efebbd" d="M 526.988281 502.03125 C 526.988281 502.03125 501.742188 543.457031 483.269531 559.289062 C 483.269531 559.289062 476.671875 561.925781 490.921875 580.75 C 505.171875 599.570312 533.410156 642.226562 529.273438 624.8125 C 525.140625 607.488281 499.453125 573.976562 510.800781 557.53125 C 522.148438 541.257812 551.53125 476.789062 526.988281 502.03125 Z M 526.988281 502.03125 " fill-opacity="1" fill-rule="nonzero"/><path fill="#efebbd" d="M 536.488281 382.152344 C 536.488281 382.152344 508.164062 422.523438 493.035156 429.472656 C 477.992188 436.417969 506.578125 440.203125 529.1875 469.226562 C 551.792969 498.25 528.746094 437.914062 520.125 432.285156 C 511.59375 426.65625 559.972656 379.164062 536.488281 382.152344 Z M 536.488281 382.152344 " fill-opacity="1" fill-rule="nonzero"/><path fill="#efebbd" d="M 537.191406 268.695312 C 537.191406 268.695312 507.371094 311.261719 494.617188 316.539062 C 481.863281 321.816406 510.800781 333.164062 534.550781 359.550781 C 558.304688 385.933594 531.472656 331.140625 520.214844 320.675781 C 508.953125 310.207031 572.289062 255.5 537.191406 268.695312 Z M 537.191406 268.695312 " fill-opacity="1" fill-rule="nonzero"/><path fill="#efebbd" d="M 533.410156 145.5625 C 533.410156 145.5625 510.011719 178.894531 496.816406 187.074219 C 483.621094 195.253906 524.699219 218.296875 533.410156 242.75 C 542.03125 267.199219 545.195312 219.265625 523.996094 200.796875 C 502.796875 182.414062 580.207031 99.648438 533.410156 145.5625 Z M 533.410156 145.5625 " fill-opacity="1" fill-rule="nonzero"/><path fill="#efebbd" d="M 399.261719 72.121094 C 399.261719 72.121094 320.007812 84.433594 306.460938 96.484375 C 292.914062 108.535156 356.953125 197.101562 355.457031 172.5625 C 353.960938 148.113281 319.390625 114.164062 347.277344 100.617188 C 375.160156 87.074219 421.253906 73.089844 399.261719 72.121094 Z M 399.261719 72.121094 " fill-opacity="1" fill-rule="nonzero"/><path fill="#efebbd" d="M 292.914062 30.34375 C 292.914062 30.34375 226.148438 102.113281 277.433594 88.566406 L 255.96875 107.828125 L 224.300781 66.753906 C 224.300781 66.667969 246.292969 37.644531 292.914062 30.34375 Z M 292.914062 30.34375 " fill-opacity="1" fill-rule="nonzero"/><path fill="#efebbd" d="M 422.222656 54.089844 C 422.222656 54.089844 414.65625 14.6875 453.535156 14.511719 C 453.535156 14.511719 417.121094 0 399.351562 16.183594 L 402.253906 54.089844 Z M 422.222656 54.089844 " fill-opacity="1" fill-rule="nonzero"/><path fill="#efebbd" d="M 224.300781 69.480469 C 224.300781 69.480469 124.375 148.550781 137.917969 179.070312 C 151.464844 209.589844 172.226562 203.257812 172.226562 203.257812 L 164.308594 213.546875 L 120.589844 201.410156 C 120.589844 201.410156 98.6875 191.558594 126.21875 157.609375 C 153.753906 123.660156 179 92.4375 179 92.4375 L 219.726562 66.050781 Z M 224.300781 69.480469 " fill-opacity="1" fill-rule="nonzero"/><path fill="#efebbd" d="M 128.15625 206.160156 C 128.15625 206.160156 51.273438 298.863281 94.640625 382.769531 L 78.808594 391.035156 C 78.808594 391.035156 50.132812 310.382812 81.796875 258.402344 C 113.464844 206.425781 120.679688 203.960938 120.679688 203.960938 Z M 128.15625 206.160156 " fill-opacity="1" fill-rule="nonzero"/><path fill="#efebbd" d="M 93.847656 387.871094 C 93.847656 387.871094 77.664062 496.050781 146.980469 558.585938 C 146.980469 558.585938 152.257812 567.644531 164.660156 562.367188 C 177.0625 557.089844 138.273438 579.34375 138.273438 579.34375 L 119.800781 555.683594 C 119.800781 555.683594 80.566406 491.828125 80.742188 447.941406 C 80.917969 404.054688 80.742188 389.980469 80.742188 389.980469 Z M 93.847656 387.871094 " fill-opacity="1" fill-rule="nonzero"/><path fill="#efebbd" d="M 171.171875 564.652344 C 171.171875 564.652344 159.824219 657.707031 223.949219 689.898438 C 223.949219 689.898438 179.789062 668.351562 161.757812 634.753906 C 143.726562 601.15625 139.589844 581.011719 139.589844 581.011719 Z M 171.171875 564.652344 " fill-opacity="1" fill-rule="nonzero"/><path fill="#efebbd" d="M 308.570312 682.949219 C 308.570312 682.949219 320.621094 760.613281 361.613281 761.402344 C 361.613281 761.402344 300.300781 748.652344 288.601562 722.175781 C 286.226562 716.8125 308.570312 682.949219 308.570312 682.949219 Z M 308.570312 682.949219 " fill-opacity="1" fill-rule="nonzero"/><path fill="#efebbd" d="M 514.585938 657.707031 C 514.585938 657.707031 498.136719 730.621094 566.308594 691.746094 L 505.699219 723.761719 L 485.46875 675.914062 Z M 514.585938 657.707031 " fill-opacity="1" fill-rule="nonzero"/><path fill="#efebbd" d="M 660.253906 426.21875 C 660.253906 426.21875 650.3125 503.613281 636.765625 534.132812 C 623.222656 564.652344 665.09375 583.125 665.09375 583.125 L 647.324219 598.429688 L 608.265625 570.460938 C 608.265625 570.460938 630.257812 523.140625 638.175781 498.601562 C 646.089844 474.0625 654.007812 436.066406 654.007812 436.066406 Z M 660.253906 426.21875 " fill-opacity="1" fill-rule="nonzero"/><path fill="#efebbd" d="M 642.75 236.0625 C 642.75 236.0625 666.851562 293.234375 670.984375 342.222656 C 675.121094 391.210938 705.292969 393.5 705.292969 393.5 L 703.796875 407.394531 L 662.277344 399.65625 C 662.277344 399.65625 662.277344 344.507812 658.496094 326.039062 C 654.710938 307.570312 636.679688 236.0625 636.679688 236.0625 Z M 642.75 236.0625 " fill-opacity="1" fill-rule="nonzero"/><path fill="#efebbd" d="M 570.355469 83.644531 C 570.355469 83.644531 580.910156 115.304688 608.089844 160.511719 C 635.273438 205.71875 642.398438 231.753906 642.398438 231.753906 C 636.765625 236.0625 597.625 157.875 581.964844 143.1875 C 566.308594 128.5 543.171875 110.378906 543.171875 110.378906 Z M 570.355469 83.644531 " fill-opacity="1" fill-rule="nonzero"/><path fill="#000000" d="M 395.566406 694.734375 C 359.0625 694.734375 323.703125 686.203125 290.363281 669.316406 C 258.253906 653.046875 229.402344 629.828125 204.683594 600.273438 C 154.015625 539.585938 126.042969 459.023438 126.042969 373.269531 C 126.042969 287.515625 153.929688 206.953125 204.683594 146.265625 C 229.402344 116.710938 258.253906 93.40625 290.363281 77.222656 C 323.703125 60.335938 359.0625 51.804688 395.566406 51.804688 C 432.074219 51.804688 467.433594 60.335938 500.773438 77.222656 C 532.882812 93.492188 561.734375 116.710938 586.453125 146.265625 C 637.121094 206.953125 665.09375 287.515625 665.09375 373.269531 C 665.09375 459.023438 637.121094 539.585938 586.453125 600.273438 C 561.734375 629.828125 532.882812 653.132812 500.773438 669.316406 C 467.433594 686.203125 432.074219 694.734375 395.566406 694.734375 Z M 395.566406 61.480469 C 252.273438 61.480469 135.71875 201.324219 135.71875 373.269531 C 135.71875 545.214844 252.273438 685.0625 395.566406 685.0625 C 538.863281 685.0625 655.417969 545.214844 655.417969 373.269531 C 655.417969 201.324219 538.863281 61.480469 395.566406 61.480469 Z M 395.566406 61.480469 " fill-opacity="1" fill-rule="nonzero"/><path fill="#000000" d="M 314.640625 315.660156 C 299.246094 327.445312 284.734375 340.640625 272.417969 355.589844 C 270.660156 357.703125 269.164062 359.726562 268.285156 362.363281 C 267.316406 365.089844 267.667969 368.082031 268.285156 370.808594 C 269.25 374.941406 270.484375 378.988281 272.066406 382.945312 C 275.144531 391.035156 279.191406 398.6875 284.292969 405.8125 C 289.921875 413.726562 296.609375 420.851562 304.261719 426.746094 C 305.230469 427.535156 306.109375 428.0625 307.339844 428.0625 C 308.394531 428.0625 309.714844 427.625 310.417969 426.746094 C 311.824219 425.160156 312.355469 421.996094 310.417969 420.5 C 307.164062 418.039062 304.171875 415.3125 301.269531 412.410156 C 299.863281 411 298.542969 409.59375 297.222656 408.097656 C 296.609375 407.394531 295.90625 406.605469 295.289062 405.8125 C 295.023438 405.460938 294.671875 405.109375 294.410156 404.757812 C 294.234375 404.582031 294.144531 404.40625 293.96875 404.230469 C 293.882812 404.140625 293.175781 403.261719 293.527344 403.703125 C 293.882812 404.140625 293.441406 403.527344 293.351562 403.4375 C 293.175781 403.261719 293.089844 403.085938 292.914062 402.910156 C 292.5625 402.46875 292.296875 402.03125 291.945312 401.679688 C 291.332031 400.800781 290.714844 400.007812 290.1875 399.128906 C 289.042969 397.457031 287.988281 395.785156 287.019531 394.113281 C 284.996094 390.683594 283.148438 387.078125 281.566406 383.382812 C 281.476562 383.121094 281.125 382.417969 281.566406 383.296875 C 281.476562 383.121094 281.390625 382.855469 281.300781 382.679688 C 281.125 382.242188 280.949219 381.800781 280.773438 381.363281 C 280.421875 380.394531 279.984375 379.425781 279.628906 378.460938 C 278.925781 376.613281 278.398438 374.675781 277.785156 372.828125 C 277.519531 371.863281 277.253906 370.894531 276.992188 369.925781 C 276.902344 369.398438 276.726562 368.960938 276.640625 368.433594 C 276.550781 368.082031 276.464844 367.816406 276.464844 367.464844 C 276.289062 366.671875 276.464844 367.730469 276.464844 367.199219 C 276.464844 366.671875 276.464844 366.144531 276.464844 365.617188 C 276.464844 365.003906 276.113281 366.496094 276.550781 365.53125 C 276.640625 365.355469 276.726562 365.089844 276.726562 364.828125 C 276.816406 364.5625 276.816406 364.121094 276.640625 364.914062 C 276.640625 364.738281 276.902344 364.386719 276.992188 364.296875 C 277.253906 363.769531 277.609375 363.242188 277.960938 362.804688 C 278.136719 362.628906 278.222656 362.453125 278.398438 362.1875 C 278.3125 362.277344 277.871094 362.890625 278.398438 362.277344 C 278.664062 361.925781 279.015625 361.570312 279.277344 361.21875 C 280.070312 360.339844 280.863281 359.375 281.652344 358.492188 C 283.238281 356.734375 284.734375 354.976562 286.316406 353.304688 C 289.484375 349.960938 292.648438 346.621094 295.992188 343.453125 C 299.6875 339.847656 303.558594 336.328125 307.515625 332.898438 C 309.449219 331.230469 311.386719 329.644531 313.320312 327.972656 C 314.375 327.09375 315.433594 326.304688 316.398438 325.511719 C 316.929688 325.070312 317.457031 324.71875 317.984375 324.28125 C 318.160156 324.105469 318.421875 323.929688 318.597656 323.753906 C 317.984375 324.191406 318.773438 323.578125 318.949219 323.488281 C 319.917969 322.785156 320.621094 322.082031 320.972656 320.851562 C 321.238281 319.792969 321.148438 318.386719 320.535156 317.421875 C 319.480469 315.484375 316.574219 314.164062 314.640625 315.660156 Z M 314.640625 315.660156 " fill-opacity="1" fill-rule="nonzero"/><path fill="#000000" d="M 471.65625 323.753906 C 479.136719 330.085938 486.4375 336.769531 493.296875 343.71875 C 496.726562 347.234375 500.160156 350.84375 503.5 354.535156 C 505.171875 356.382812 506.753906 358.140625 508.339844 359.988281 C 509.042969 360.867188 509.835938 361.660156 510.539062 362.539062 C 510.714844 362.714844 510.890625 362.980469 510.976562 363.15625 C 511.066406 363.332031 511.59375 364.035156 511.152344 363.332031 C 511.503906 363.859375 511.945312 364.386719 512.296875 364.914062 C 512.914062 365.792969 513.527344 366.761719 514.058594 367.730469 C 514.320312 368.257812 514.585938 368.695312 514.847656 369.222656 C 514.9375 369.398438 515.199219 370.015625 514.847656 369.222656 C 515.023438 369.574219 515.113281 369.925781 515.199219 370.28125 C 515.375 370.71875 515.464844 371.246094 515.640625 371.6875 C 515.726562 371.949219 515.726562 372.300781 515.816406 372.566406 C 515.992188 373.183594 515.816406 371.773438 515.816406 372.476562 C 515.816406 373.007812 515.902344 373.535156 515.902344 374.0625 C 515.902344 374.238281 515.902344 374.589844 515.816406 374.765625 C 515.902344 374.238281 515.902344 374.148438 515.816406 374.5 C 515.816406 374.675781 515.726562 374.851562 515.726562 375.027344 C 515.640625 375.292969 515.640625 375.46875 515.550781 375.734375 C 515.550781 375.734375 515.113281 376.875 515.375 376.261719 C 515.550781 375.734375 515.289062 376.523438 515.199219 376.613281 C 515.023438 376.875 514.9375 377.140625 514.761719 377.492188 C 514.234375 378.460938 513.527344 379.425781 512.824219 380.394531 C 512.121094 381.273438 511.503906 382.152344 510.800781 383.121094 C 510.714844 383.296875 510.273438 383.734375 510.800781 383.121094 C 510.625 383.296875 510.539062 383.472656 510.363281 383.734375 C 510.011719 384.265625 509.570312 384.703125 509.21875 385.230469 C 503.589844 392.265625 497.34375 398.863281 490.660156 404.84375 C 488.722656 406.515625 486.789062 408.1875 484.851562 409.859375 C 483.886719 410.648438 482.917969 411.441406 481.949219 412.144531 C 481.773438 412.234375 481.332031 412.671875 481.949219 412.144531 C 481.6875 412.410156 481.332031 412.585938 481.070312 412.847656 C 480.542969 413.199219 480.101562 413.640625 479.574219 413.992188 C 475.441406 417.070312 471.21875 419.882812 466.90625 422.523438 C 464.972656 423.753906 464.003906 426.480469 465.324219 428.503906 C 466.554688 430.4375 469.195312 431.320312 471.304688 430.085938 C 487.492188 420.238281 502.003906 407.746094 514.058594 393.148438 C 515.726562 391.125 517.3125 389.101562 518.894531 386.992188 C 520.300781 385.054688 521.886719 383.121094 522.941406 381.007812 C 524.171875 378.457031 524.875 375.554688 524.699219 372.742188 C 524.4375 369.925781 523.644531 367.289062 522.414062 364.738281 C 520.214844 360.164062 516.695312 356.207031 513.351562 352.425781 C 510.011719 348.554688 506.578125 344.859375 503.0625 341.167969 C 495.144531 332.898438 486.789062 325.070312 477.992188 317.683594 C 476.230469 316.1875 473.503906 315.835938 471.746094 317.683594 C 470.164062 319.179688 469.722656 322.167969 471.65625 323.753906 Z M 471.65625 323.753906 " fill-opacity="1" fill-rule="nonzero"/><path fill="#000000" d="M 329.15625 317.949219 C 331.441406 317.597656 333.730469 317.246094 336.015625 316.980469 C 336.105469 316.980469 336.984375 316.804688 336.457031 316.890625 C 335.929688 316.980469 336.808594 316.804688 336.894531 316.804688 C 337.421875 316.714844 337.863281 316.714844 338.390625 316.628906 C 339.621094 316.453125 340.941406 316.277344 342.171875 316.1875 C 346.746094 315.660156 351.320312 315.222656 355.808594 314.871094 C 365.042969 314.164062 374.191406 313.726562 383.429688 313.636719 C 392.578125 313.550781 401.726562 313.8125 410.875 314.339844 C 415.535156 314.605469 420.109375 314.957031 424.773438 315.484375 C 427.058594 315.75 429.257812 315.925781 431.457031 316.1875 C 432.601562 316.277344 433.65625 316.453125 434.800781 316.628906 C 435.328125 316.714844 435.945312 316.804688 436.472656 316.804688 C 436.734375 316.804688 437 316.890625 437.351562 316.890625 C 437.527344 316.890625 437.617188 316.890625 437.792969 316.980469 C 437.351562 316.890625 437.351562 316.890625 437.703125 316.980469 C 447.996094 318.386719 458.199219 320.148438 468.316406 322.433594 C 470.515625 322.960938 473.152344 321.730469 473.769531 319.355469 C 474.296875 317.15625 473.066406 314.429688 470.691406 313.902344 C 452.304688 309.855469 433.570312 307.21875 414.746094 305.808594 C 396.097656 304.492188 377.359375 304.492188 358.800781 305.808594 C 348.066406 306.601562 337.421875 307.832031 326.78125 309.503906 C 324.492188 309.855469 322.996094 312.847656 323.703125 314.957031 C 324.582031 317.421875 326.691406 318.386719 329.15625 317.949219 Z M 329.15625 317.949219 " fill-opacity="1" fill-rule="nonzero"/><path fill="#000000" d="M 322.207031 433.867188 C 338.742188 435.890625 355.28125 437.386719 371.90625 438.355469 C 388.53125 439.320312 405.15625 439.675781 421.78125 439.496094 C 431.195312 439.410156 440.605469 439.058594 450.019531 438.617188 C 452.304688 438.53125 454.503906 436.683594 454.417969 434.222656 C 454.328125 431.933594 452.480469 429.734375 450.019531 429.824219 C 433.394531 430.613281 416.769531 430.878906 400.054688 430.613281 C 383.429688 430.351562 366.804688 429.472656 350.179688 428.0625 C 340.765625 427.273438 331.441406 426.304688 322.117188 425.160156 C 319.832031 424.898438 317.632812 427.359375 317.71875 429.558594 C 317.984375 432.109375 319.742188 433.605469 322.207031 433.867188 Z M 322.207031 433.867188 " fill-opacity="1" fill-rule="nonzero"/><path fill="#000000" d="M 302.238281 433.691406 C 294.410156 441.433594 287.371094 449.789062 280.949219 458.757812 C 277.871094 463.070312 274.96875 467.554688 272.242188 472.128906 C 270.835938 474.414062 269.515625 476.789062 268.285156 479.164062 C 266.875 481.804688 265.292969 484.441406 264.5 487.34375 C 263.535156 490.863281 264.148438 494.203125 265.996094 497.195312 C 267.226562 499.21875 268.636719 501.242188 269.867188 503.175781 C 272.503906 507.222656 275.234375 511.265625 278.046875 515.226562 C 283.765625 523.230469 289.835938 531.144531 296.871094 538.09375 C 304.613281 545.832031 313.496094 552.515625 323.523438 557.003906 C 325.636719 557.96875 328.363281 557.707031 329.507812 555.417969 C 330.472656 553.484375 330.210938 550.40625 327.921875 549.4375 C 323.703125 547.589844 319.65625 545.304688 315.871094 542.667969 C 314.992188 542.050781 314.113281 541.433594 313.234375 540.820312 C 313.058594 540.644531 311.648438 539.585938 312.53125 540.292969 C 312 539.851562 311.472656 539.410156 310.945312 539.058594 C 309.1875 537.652344 307.425781 536.15625 305.84375 534.574219 C 302.5 531.410156 299.335938 528.066406 296.34375 524.636719 C 294.847656 522.875 293.351562 521.117188 291.945312 519.269531 C 291.769531 519.007812 291.507812 518.742188 291.332031 518.480469 C 291.242188 518.304688 290.800781 517.863281 291.417969 518.566406 C 291.066406 518.128906 290.714844 517.601562 290.363281 517.160156 C 289.660156 516.191406 288.957031 515.3125 288.25 514.34375 C 285.4375 510.5625 282.796875 506.605469 280.160156 502.734375 C 278.839844 500.710938 277.519531 498.777344 276.199219 496.753906 C 275.671875 495.875 275.058594 494.996094 274.527344 494.117188 C 274.175781 493.589844 273.824219 493.0625 273.5625 492.621094 C 273.386719 492.269531 273.210938 492.003906 273.035156 491.652344 C 273.386719 492.355469 273.121094 491.652344 272.945312 491.300781 C 272.683594 490.597656 272.945312 491.125 272.945312 491.300781 C 272.945312 490.949219 272.945312 490.511719 272.945312 490.160156 C 272.945312 490.421875 272.769531 490.949219 272.945312 490.160156 C 273.035156 489.808594 273.121094 489.542969 273.210938 489.191406 C 273.296875 488.839844 273.386719 488.574219 273.5625 488.222656 C 273.296875 488.925781 273.5625 488.3125 273.648438 488.136719 C 274 487.433594 274.351562 486.730469 274.703125 486.023438 C 275.847656 483.738281 277.078125 481.453125 278.398438 479.253906 C 280.949219 474.765625 283.675781 470.457031 286.578125 466.234375 C 288.25 463.773438 290.011719 461.398438 291.769531 459.023438 C 291.945312 458.847656 292.121094 458.582031 292.210938 458.40625 C 292.386719 458.230469 292.5625 457.96875 292.648438 457.792969 C 292.386719 458.144531 292.386719 458.144531 292.5625 457.878906 C 293 457.351562 293.441406 456.738281 293.882812 456.207031 C 294.761719 455.066406 295.726562 453.921875 296.695312 452.777344 C 300.476562 448.292969 304.4375 443.984375 308.570312 439.9375 C 310.242188 438.355469 310.332031 435.277344 308.570312 433.691406 C 306.636719 432.109375 303.910156 432.023438 302.238281 433.691406 Z M 302.238281 433.691406 " fill-opacity="1" fill-rule="nonzero"/><path fill="#000000" d="M 471.65625 444.070312 C 476.230469 447.0625 480.71875 450.226562 485.027344 453.480469 C 485.292969 453.660156 485.554688 453.921875 485.820312 454.097656 C 485.820312 454.097656 486.789062 454.890625 486.347656 454.449219 C 485.820312 454.097656 486.875 454.890625 486.875 454.800781 C 487.140625 454.976562 487.402344 455.242188 487.667969 455.417969 C 488.722656 456.296875 489.867188 457.175781 490.921875 457.96875 C 493.035156 459.726562 495.144531 461.484375 497.253906 463.332031 C 501.300781 466.851562 505.261719 470.632812 509.042969 474.414062 C 510.890625 476.351562 512.824219 478.285156 514.585938 480.308594 C 514.761719 480.484375 514.847656 480.660156 515.023438 480.835938 C 514.410156 480.132812 514.9375 480.746094 515.113281 480.921875 C 515.464844 481.363281 515.726562 481.890625 515.992188 482.417969 C 515.992188 482.507812 516.078125 482.507812 516.078125 482.59375 C 516.257812 483.035156 516.257812 483.035156 516.078125 482.507812 C 516.257812 482.683594 516.257812 483.121094 516.34375 483.296875 C 516.609375 483.824219 516.34375 482.332031 516.34375 483.296875 C 516.34375 483.648438 516.257812 484.355469 516.433594 483.5625 C 516.34375 483.914062 516.253906 484.265625 516.167969 484.707031 C 516.167969 484.882812 515.816406 485.496094 516.167969 484.707031 C 515.902344 485.320312 515.550781 485.847656 515.289062 486.464844 C 514.671875 487.609375 513.96875 488.75 513.351562 489.894531 C 512.121094 492.003906 510.976562 494.027344 509.660156 496.140625 C 507.109375 500.359375 504.554688 504.496094 501.828125 508.539062 C 500.511719 510.476562 499.191406 512.410156 497.785156 514.34375 C 497.078125 515.3125 496.375 516.28125 495.671875 517.160156 C 495.320312 517.601562 494.96875 518.128906 494.617188 518.566406 C 495.230469 517.6875 494.527344 518.65625 494.441406 518.832031 C 494.265625 519.09375 494 519.359375 493.824219 519.621094 C 490.832031 523.40625 487.753906 527.011719 484.414062 530.441406 C 482.566406 532.375 480.628906 534.222656 478.695312 535.980469 C 477.640625 536.859375 476.582031 537.828125 475.527344 538.707031 C 475 539.148438 474.5625 539.5 474.03125 539.941406 C 473.769531 540.117188 473.59375 540.292969 473.328125 540.46875 C 472.539062 541.082031 473.855469 540.027344 473.152344 540.644531 C 468.753906 543.898438 464.179688 546.800781 459.34375 549.261719 C 457.320312 550.316406 456.527344 553.394531 457.757812 555.242188 C 459.078125 557.355469 461.542969 557.96875 463.742188 556.828125 C 482.125 547.503906 496.375 531.9375 507.898438 515.226562 C 510.714844 511.089844 513.441406 506.871094 516.078125 502.558594 C 517.398438 500.359375 518.71875 498.074219 520.039062 495.875 C 521.269531 493.675781 522.675781 491.476562 523.734375 489.191406 C 524.523438 487.519531 525.050781 485.847656 525.140625 484 C 525.226562 482.066406 524.699219 480.308594 523.910156 478.636719 C 522.765625 476 520.742188 473.886719 518.808594 471.863281 C 514.9375 467.730469 510.890625 463.773438 506.753906 459.992188 C 497.253906 451.285156 487.050781 443.457031 476.320312 436.417969 C 474.382812 435.1875 471.394531 435.980469 470.339844 438.003906 C 468.929688 440.203125 469.546875 442.664062 471.65625 444.070312 Z M 471.65625 444.070312 " fill-opacity="1" fill-rule="nonzero"/><path fill="#000000" d="M 341.558594 558.410156 C 369.882812 562.191406 398.558594 563.070312 427.058594 560.695312 C 435.152344 559.992188 443.246094 559.023438 451.339844 557.882812 C 453.625 557.53125 455.121094 554.539062 454.417969 552.429688 C 453.625 549.964844 451.425781 549 448.960938 549.351562 C 448.082031 549.4375 447.292969 549.613281 446.410156 549.703125 C 445.972656 549.789062 445.53125 549.789062 445.09375 549.878906 C 446.058594 549.789062 444.652344 549.964844 444.566406 549.964844 C 442.71875 550.230469 440.871094 550.40625 439.023438 550.667969 C 435.59375 551.109375 432.160156 551.460938 428.730469 551.726562 C 421.871094 552.339844 415.007812 552.78125 408.058594 553.042969 C 394.25 553.570312 380.4375 553.308594 366.714844 552.253906 C 362.84375 551.988281 358.976562 551.636719 355.105469 551.199219 C 353.082031 551.019531 351.144531 550.757812 349.121094 550.492188 C 348.15625 550.40625 347.101562 550.230469 346.132812 550.140625 C 345.691406 550.054688 345.253906 550.054688 344.8125 549.964844 C 344.636719 549.964844 342.964844 549.703125 343.84375 549.878906 C 342.613281 549.703125 341.558594 549.703125 340.414062 550.316406 C 339.535156 550.84375 338.65625 551.902344 338.390625 552.957031 C 337.953125 555.066406 339.09375 558.058594 341.558594 558.410156 Z M 341.558594 558.410156 " fill-opacity="1" fill-rule="nonzero"/><path fill="#000000" d="M 313.058594 297.894531 C 312.355469 297.015625 311.5625 296.046875 310.859375 295.167969 C 310.683594 294.992188 310.507812 294.726562 310.417969 294.550781 C 310.507812 294.726562 310.945312 295.167969 310.417969 294.550781 C 310.066406 294.023438 309.625 293.496094 309.273438 292.96875 C 307.867188 291.121094 306.460938 289.1875 305.140625 287.253906 C 302.5 283.46875 300.039062 279.601562 297.664062 275.644531 C 295.289062 271.683594 293.089844 267.640625 290.976562 263.503906 C 289.921875 261.394531 288.867188 259.285156 287.898438 257.171875 C 287.460938 256.207031 287.019531 255.148438 286.582031 254.183594 C 286.316406 253.65625 286.140625 253.125 285.875 252.597656 C 285.789062 252.335938 285.699219 252.160156 285.613281 251.894531 C 285.964844 252.773438 285.523438 251.542969 285.4375 251.542969 C 284.558594 249.34375 283.589844 247.234375 282.886719 244.949219 C 282.710938 244.417969 282.621094 243.890625 282.535156 243.453125 C 282.710938 244.332031 282.535156 243.628906 282.535156 243.453125 C 282.535156 243.1875 282.535156 242.925781 282.535156 242.660156 C 282.535156 243.539062 282.535156 242.75 282.621094 242.484375 C 282.710938 242.222656 282.796875 241.957031 282.886719 241.78125 C 283.0625 241.164062 282.359375 242.574219 282.972656 241.605469 C 283.148438 241.339844 283.324219 240.988281 283.414062 240.726562 C 284.558594 238.878906 285.789062 237.03125 287.019531 235.273438 C 287.636719 234.480469 288.164062 233.601562 288.777344 232.808594 C 289.042969 232.457031 289.308594 232.019531 289.660156 231.667969 C 289.835938 231.402344 290.011719 231.226562 290.1875 230.964844 C 290.539062 230.523438 289.746094 231.492188 290.273438 230.875 C 295.550781 224.191406 301.445312 217.945312 307.957031 212.40625 C 308.835938 211.613281 309.804688 210.910156 310.683594 210.117188 C 311.121094 209.765625 311.648438 209.414062 312.089844 208.976562 C 312.617188 208.535156 311.296875 209.589844 312.179688 208.886719 C 312.441406 208.710938 312.617188 208.535156 312.882812 208.359375 C 314.816406 206.953125 316.753906 205.542969 318.6875 204.226562 C 322.734375 201.5 326.867188 199.125 331.179688 196.925781 C 333.203125 195.871094 333.992188 192.792969 332.761719 190.945312 C 331.441406 188.832031 328.980469 188.21875 326.78125 189.363281 C 310.769531 197.542969 296.433594 209.152344 285.171875 223.136719 C 282.269531 226.742188 279.453125 230.523438 276.902344 234.480469 C 275.320312 236.945312 273.914062 239.40625 273.648438 242.398438 C 273.386719 245.125 274.265625 247.761719 275.234375 250.222656 C 278.839844 259.460938 283.0625 268.34375 287.898438 276.960938 C 293.441406 286.636719 299.773438 295.785156 306.722656 304.402344 C 308.21875 306.164062 311.472656 305.984375 312.96875 304.402344 C 314.816406 302.203125 314.640625 299.828125 313.058594 297.894531 Z M 313.058594 297.894531 " fill-opacity="1" fill-rule="nonzero"/><path fill="#000000" d="M 342.527344 193.757812 C 344.726562 193.40625 346.835938 193.054688 349.035156 192.703125 C 350.003906 192.527344 350.96875 192.441406 352.027344 192.265625 C 352.554688 192.175781 353.167969 192.089844 353.695312 192 C 353.875 192 354.136719 191.910156 354.3125 191.910156 C 353.519531 192 354.488281 191.910156 354.664062 191.910156 C 358.976562 191.382812 363.285156 190.855469 367.59375 190.417969 C 376.214844 189.539062 384.835938 189.007812 393.546875 188.746094 C 410.875 188.128906 428.203125 188.746094 445.53125 190.417969 C 447.90625 190.679688 450.371094 190.945312 452.746094 191.207031 C 453.976562 191.382812 455.296875 191.472656 456.527344 191.648438 C 457.054688 191.734375 457.671875 191.824219 458.199219 191.824219 C 458.464844 191.824219 458.726562 191.910156 459.078125 191.910156 C 459.253906 191.910156 459.34375 191.910156 459.519531 192 C 459.167969 191.910156 459.078125 191.910156 459.429688 192 C 464.269531 192.703125 469.105469 193.40625 473.945312 194.285156 C 476.230469 194.636719 478.78125 193.671875 479.398438 191.207031 C 479.925781 189.097656 478.78125 186.195312 476.320312 185.753906 C 458.726562 182.675781 440.871094 180.742188 423.011719 180.039062 C 405.507812 179.335938 388.003906 179.773438 370.675781 181.359375 C 360.558594 182.324219 350.355469 183.554688 340.328125 185.226562 C 338.039062 185.578125 336.542969 188.570312 337.246094 190.679688 C 337.953125 193.144531 340.152344 194.109375 342.527344 193.757812 Z M 342.527344 193.757812 " fill-opacity="1" fill-rule="nonzero"/><path fill="#000000" d="M 479.3125 204.578125 C 479.75 204.929688 480.277344 205.28125 480.71875 205.632812 C 479.925781 205.015625 481.15625 205.984375 481.421875 206.160156 C 482.300781 206.863281 483.179688 207.566406 484.0625 208.269531 C 485.820312 209.765625 487.492188 211.261719 489.164062 212.757812 C 492.59375 215.921875 495.761719 219.175781 498.839844 222.609375 C 500.335938 224.277344 501.828125 226.039062 503.238281 227.796875 C 503.589844 228.238281 503.941406 228.675781 504.203125 229.027344 C 504.910156 229.90625 503.851562 228.589844 504.292969 229.117188 C 504.46875 229.378906 504.644531 229.554688 504.820312 229.820312 C 505.523438 230.699219 506.226562 231.667969 506.84375 232.546875 C 509.570312 236.328125 512.035156 240.199219 514.320312 244.15625 C 516.609375 248.113281 518.628906 252.160156 520.566406 256.292969 C 520.828125 256.820312 521.003906 257.261719 521.183594 257.789062 C 521.445312 258.402344 520.917969 256.820312 521.269531 257.964844 C 521.269531 258.050781 521.535156 258.578125 521.445312 258.667969 C 521.445312 258.667969 521.535156 257.875 521.445312 258.578125 C 521.621094 257.261719 521.183594 258.933594 521.535156 258.226562 C 521.886719 257.613281 521.269531 258.578125 521.269531 258.578125 C 520.828125 259.371094 521.710938 258.050781 521.09375 258.757812 C 519.421875 260.691406 517.839844 262.625 516.167969 264.5625 C 509.570312 272.210938 502.535156 279.511719 495.320312 286.460938 C 487.050781 294.375 478.429688 301.851562 469.457031 308.890625 C 467.609375 310.296875 467.875 313.636719 469.457031 315.132812 C 471.394531 316.890625 473.769531 316.628906 475.703125 315.132812 C 492.242188 302.203125 507.546875 287.691406 521.359375 271.949219 C 523.117188 269.925781 524.875 267.902344 526.546875 265.878906 C 527.425781 264.824219 528.394531 263.769531 529.097656 262.539062 C 530.152344 260.691406 530.417969 258.667969 530.066406 256.644531 C 529.539062 254.183594 528.132812 251.71875 527.074219 249.34375 C 526.109375 247.234375 525.050781 245.125 523.910156 243.101562 C 519.335938 234.570312 513.703125 226.476562 507.460938 219 C 500.421875 210.644531 492.417969 203.171875 483.621094 196.574219 C 481.773438 195.167969 478.605469 196.222656 477.640625 198.15625 C 476.582031 200.882812 477.375 203.082031 479.3125 204.578125 Z M 479.3125 204.578125 " fill-opacity="1" fill-rule="nonzero"/><path fill="#000000" d="M 277.167969 114.25 C 287.636719 132.71875 299.335938 150.488281 312.089844 167.460938 C 315.871094 172.472656 319.65625 177.3125 323.613281 182.238281 C 325.109375 183.996094 328.363281 183.820312 329.859375 182.238281 C 331.617188 180.300781 331.441406 177.925781 329.859375 175.992188 C 328.1875 173.96875 326.515625 171.859375 324.933594 169.75 C 324.582031 169.308594 324.140625 168.78125 323.789062 168.339844 C 323.613281 168.078125 323.347656 167.8125 323.171875 167.550781 C 322.734375 166.933594 323.789062 168.339844 322.996094 167.285156 C 322.207031 166.230469 321.324219 165.085938 320.535156 164.03125 C 317.367188 159.898438 314.375 155.761719 311.386719 151.542969 C 305.316406 143.011719 299.511719 134.214844 294.058594 125.332031 C 290.890625 120.230469 287.8125 115.042969 284.910156 109.851562 C 283.765625 107.828125 280.863281 107.039062 278.925781 108.269531 C 276.726562 109.5 275.9375 112.050781 277.167969 114.25 Z M 277.167969 114.25 " fill-opacity="1" fill-rule="nonzero"/><path fill="#000000" d="M 492.417969 179.421875 C 506.753906 167.109375 520.039062 153.652344 532 139.050781 C 535.519531 134.742188 538.949219 130.433594 542.292969 125.949219 C 543.699219 124.101562 542.644531 120.933594 540.710938 119.96875 C 538.421875 118.734375 536.136719 119.617188 534.726562 121.550781 C 534.023438 122.429688 533.410156 123.398438 532.707031 124.277344 C 532.53125 124.539062 532.265625 124.804688 532.089844 125.066406 C 532 125.15625 531.5625 125.683594 532.089844 125.15625 C 531.648438 125.683594 531.296875 126.210938 530.859375 126.738281 C 529.449219 128.5 528.042969 130.257812 526.636719 132.015625 C 523.644531 135.621094 520.652344 139.140625 517.574219 142.660156 C 511.417969 149.605469 504.910156 156.292969 498.136719 162.625 C 494.265625 166.316406 490.304688 169.835938 486.261719 173.265625 C 484.5 174.761719 484.589844 177.925781 486.261719 179.511719 C 488.105469 181.183594 490.570312 181.007812 492.417969 179.421875 Z M 492.417969 179.421875 " fill-opacity="1" fill-rule="nonzero"/><path fill="#000000" d="M 545.195312 262.800781 C 564.898438 260.164062 584.515625 257.4375 604.21875 254.796875 C 609.851562 254.007812 615.390625 253.304688 621.023438 252.511719 C 623.308594 252.160156 624.714844 249.167969 624.101562 247.058594 C 623.308594 244.507812 621.109375 243.628906 618.648438 243.980469 C 598.941406 246.617188 579.328125 249.34375 559.621094 251.984375 C 553.992188 252.773438 548.449219 253.480469 542.820312 254.269531 C 540.535156 254.621094 539.125 257.613281 539.742188 259.722656 C 540.621094 262.1875 542.734375 263.066406 545.195312 262.800781 Z M 545.195312 262.800781 " fill-opacity="1" fill-rule="nonzero"/><path fill="#000000" d="M 543.964844 375.910156 C 571.058594 375.820312 598.152344 375.203125 625.15625 373.972656 C 632.722656 373.621094 640.375 373.269531 647.9375 372.917969 C 650.226562 372.828125 652.425781 370.984375 652.335938 368.519531 C 652.25 366.234375 650.402344 364.035156 647.9375 364.121094 C 620.933594 365.53125 593.839844 366.496094 566.746094 366.847656 C 559.09375 366.9375 551.53125 367.023438 543.875 367.023438 C 541.589844 367.023438 539.390625 369.046875 539.480469 371.421875 C 539.65625 373.886719 541.5 375.910156 543.964844 375.910156 Z M 543.964844 375.910156 " fill-opacity="1" fill-rule="nonzero"/><path fill="#000000" d="M 533.761719 489.542969 C 556.542969 493.589844 579.0625 499.128906 601.054688 506.078125 C 607.300781 508.011719 613.457031 510.125 619.613281 512.324219 C 621.8125 513.113281 624.539062 511.441406 625.066406 509.246094 C 625.597656 506.78125 624.277344 504.671875 621.988281 503.792969 C 600.261719 495.964844 577.917969 489.628906 555.3125 484.707031 C 548.890625 483.296875 542.46875 482.066406 536.046875 480.921875 C 533.761719 480.484375 531.210938 481.539062 530.59375 484 C 530.242188 486.289062 531.386719 489.101562 533.761719 489.542969 Z M 533.761719 489.542969 " fill-opacity="1" fill-rule="nonzero"/><path fill="#000000" d="M 467.523438 572.65625 C 479.839844 590.335938 492.679688 607.664062 505.964844 624.550781 C 509.746094 629.300781 513.527344 634.046875 517.398438 638.710938 C 518.894531 640.46875 522.148438 640.382812 523.644531 638.710938 C 525.402344 636.773438 525.226562 634.398438 523.644531 632.464844 C 520.300781 628.332031 516.960938 624.285156 513.703125 620.0625 C 512.121094 618.042969 510.449219 615.929688 508.867188 613.90625 C 508.074219 612.941406 507.285156 611.882812 506.492188 610.917969 C 506.578125 611.003906 505.699219 609.863281 506.050781 610.390625 C 506.402344 610.828125 505.523438 609.773438 505.613281 609.863281 C 505.171875 609.335938 504.734375 608.71875 504.292969 608.191406 C 497.871094 599.835938 491.539062 591.304688 485.378906 582.683594 C 481.949219 577.847656 478.519531 573.007812 475.089844 568.171875 C 473.769531 566.324219 471.21875 565.269531 469.105469 566.589844 C 467.257812 567.910156 466.117188 570.722656 467.523438 572.65625 Z M 467.523438 572.65625 " fill-opacity="1" fill-rule="nonzero"/><path fill="#000000" d="M 315.082031 568.085938 C 301.972656 585.148438 289.835938 602.914062 278.839844 621.382812 C 275.761719 626.574219 272.769531 631.761719 269.867188 637.039062 C 268.722656 639.0625 269.339844 641.964844 271.449219 643.019531 C 273.472656 644.074219 276.289062 643.636719 277.433594 641.4375 C 287.8125 622.613281 299.246094 604.410156 311.824219 586.90625 C 315.34375 581.980469 318.949219 577.144531 322.644531 572.394531 C 324.054688 570.546875 322.996094 567.378906 321.0625 566.414062 C 318.773438 565.269531 316.574219 566.0625 315.082031 568.085938 Z M 315.082031 568.085938 " fill-opacity="1" fill-rule="nonzero"/><path fill="#000000" d="M 181.109375 518.390625 C 198.96875 511.089844 217.527344 505.460938 236.527344 501.855469 C 239.253906 501.328125 241.980469 500.890625 244.707031 500.449219 C 246.027344 500.183594 247.4375 500.007812 248.753906 499.832031 C 249.371094 499.746094 249.988281 499.65625 250.601562 499.570312 C 250.953125 499.480469 251.304688 499.480469 251.65625 499.394531 C 252.625 499.21875 251.042969 499.480469 252.097656 499.304688 C 254.386719 499.042969 256.585938 497.457031 256.496094 494.90625 C 256.410156 492.796875 254.5625 490.160156 252.097656 490.511719 C 232.394531 493.0625 213.042969 497.546875 194.304688 504.054688 C 189.113281 505.902344 183.925781 507.835938 178.824219 509.949219 C 176.710938 510.828125 174.953125 512.9375 175.746094 515.402344 C 176.359375 517.335938 178.824219 519.359375 181.109375 518.390625 Z M 181.109375 518.390625 " fill-opacity="1" fill-rule="nonzero"/><path fill="#000000" d="M 160.703125 374.765625 C 167.300781 373.007812 173.984375 371.421875 180.671875 370.191406 C 183.925781 369.574219 187.269531 369.046875 190.523438 368.519531 C 191.3125 368.433594 192.195312 368.257812 192.984375 368.167969 C 193.074219 368.167969 194.480469 367.992188 193.511719 368.082031 C 193.953125 367.992188 194.304688 367.992188 194.746094 367.90625 C 196.503906 367.640625 198.351562 367.464844 200.109375 367.289062 C 213.570312 365.882812 227.117188 365.441406 240.574219 366.058594 C 248.226562 366.410156 255.878906 367.113281 263.445312 368.167969 C 265.734375 368.433594 267.929688 365.96875 267.84375 363.769531 C 267.753906 361.132812 265.910156 359.726562 263.445312 359.375 C 235.914062 355.679688 207.941406 356.382812 180.671875 361.308594 C 173.105469 362.628906 165.628906 364.386719 158.238281 366.320312 C 156.039062 366.9375 154.457031 369.488281 155.160156 371.773438 C 156.039062 373.972656 158.328125 375.46875 160.703125 374.765625 Z M 160.703125 374.765625 " fill-opacity="1" fill-rule="nonzero"/><path fill="#000000" d="M 188.9375 221.289062 C 208.117188 231.226562 228.347656 239.320312 249.195312 245.210938 C 255 246.882812 260.894531 248.289062 266.789062 249.609375 C 268.988281 250.136719 271.625 248.90625 272.242188 246.53125 C 272.769531 244.332031 271.539062 241.691406 269.164062 241.078125 C 258.785156 238.789062 248.578125 235.976562 238.550781 232.632812 C 233.539062 230.964844 228.523438 229.203125 223.597656 227.269531 C 221.132812 226.300781 218.671875 225.332031 216.207031 224.277344 C 215.855469 224.191406 215.59375 224.015625 215.242188 223.925781 C 215.417969 224.015625 215.945312 224.191406 215.152344 223.925781 C 214.535156 223.664062 213.921875 223.398438 213.304688 223.136719 C 212.074219 222.609375 210.84375 222.078125 209.609375 221.464844 C 204.15625 219 198.792969 216.449219 193.511719 213.636719 C 191.492188 212.582031 188.675781 213.019531 187.53125 215.21875 C 186.210938 217.242188 186.738281 220.144531 188.9375 221.289062 Z M 188.9375 221.289062 " fill-opacity="1" fill-rule="nonzero"/><path fill="#000000" d="M 392.488281 14.511719 C 394.160156 27.617188 394.953125 40.808594 394.953125 54.089844 C 394.953125 56.378906 396.976562 58.578125 399.351562 58.488281 C 401.726562 58.398438 403.75 56.554688 403.75 54.089844 C 403.75 40.898438 402.957031 27.617188 401.285156 14.511719 C 401.023438 12.226562 399.4375 10.027344 396.886719 10.113281 C 394.6875 10.203125 392.136719 12.050781 392.488281 14.511719 Z M 392.488281 14.511719 " fill-opacity="1" fill-rule="nonzero"/><path fill="#000000" d="M 222.015625 70.1875 C 227.378906 76.34375 232.65625 82.675781 237.757812 89.097656 C 238.992188 90.679688 240.3125 92.261719 241.542969 93.84375 C 241.894531 94.285156 241.894531 94.285156 241.628906 93.933594 C 241.804688 94.195312 241.980469 94.371094 242.15625 94.636719 C 242.421875 94.988281 242.6875 95.339844 242.949219 95.605469 C 243.566406 96.394531 244.179688 97.273438 244.886719 98.15625 C 247.347656 101.410156 249.8125 104.75 252.273438 108.09375 C 253.59375 109.941406 256.144531 111.082031 258.253906 109.675781 C 260.101562 108.445312 261.246094 105.628906 259.839844 103.695312 C 249.988281 89.976562 239.429688 76.695312 228.347656 64.03125 C 226.851562 62.269531 223.683594 62.359375 222.101562 64.03125 C 220.34375 65.875 220.429688 68.339844 222.015625 70.1875 Z M 222.015625 70.1875 " fill-opacity="1" fill-rule="nonzero"/><path fill="#000000" d="M 575.894531 69.042969 C 563.582031 81.003906 551.96875 93.757812 541.238281 107.300781 C 539.832031 109.0625 539.390625 111.789062 541.238281 113.546875 C 542.820312 115.042969 545.898438 115.480469 547.484375 113.546875 C 558.214844 100.089844 569.738281 87.335938 582.140625 75.289062 C 583.8125 73.703125 583.902344 70.625 582.140625 69.042969 C 580.382812 67.371094 577.65625 67.285156 575.894531 69.042969 Z M 575.894531 69.042969 " fill-opacity="1" fill-rule="nonzero"/><path fill="#000000" d="M 638.964844 239.933594 C 652.335938 234.128906 665.796875 228.414062 679.167969 222.605469 C 681.277344 221.726562 681.894531 218.386719 680.75 216.625 C 679.34375 214.429688 676.96875 214.074219 674.769531 215.042969 C 661.398438 220.847656 647.9375 226.566406 634.570312 232.371094 C 632.457031 233.25 631.839844 236.59375 632.984375 238.351562 C 634.304688 240.550781 636.679688 240.902344 638.964844 239.933594 Z M 638.964844 239.933594 " fill-opacity="1" fill-rule="nonzero"/><path fill="#000000" d="M 663.859375 404.054688 C 667.117188 404.316406 670.371094 404.667969 673.625 405.109375 C 674.066406 405.195312 674.503906 405.195312 674.855469 405.285156 C 675.824219 405.371094 674.328125 405.195312 675.382812 405.371094 C 676.175781 405.460938 676.96875 405.546875 677.671875 405.722656 C 679.253906 405.988281 680.925781 406.25 682.507812 406.515625 C 688.929688 407.570312 695.351562 408.890625 701.683594 410.472656 C 703.882812 411 706.523438 409.769531 707.140625 407.394531 C 707.667969 405.109375 706.433594 402.558594 704.058594 401.941406 C 690.867188 398.6875 677.40625 396.488281 663.859375 395.257812 C 661.574219 395.082031 659.375 397.457031 659.460938 399.65625 C 659.550781 402.207031 661.398438 403.878906 663.859375 404.054688 Z M 663.859375 404.054688 " fill-opacity="1" fill-rule="nonzero"/><path fill="#000000" d="M 606.066406 574.328125 C 612.578125 578.285156 618.824219 582.597656 624.890625 587.167969 C 625.15625 587.347656 625.066406 587.347656 624.804688 587.082031 C 624.980469 587.257812 625.246094 587.433594 625.421875 587.609375 C 625.859375 587.960938 626.210938 588.226562 626.652344 588.578125 C 627.355469 589.191406 628.058594 589.71875 628.851562 590.335938 C 630.257812 591.480469 631.664062 592.710938 633.074219 593.941406 C 635.976562 596.40625 638.789062 599.042969 641.605469 601.683594 C 643.277344 603.265625 646.179688 603.441406 647.851562 601.683594 C 649.433594 599.921875 649.609375 597.195312 647.851562 595.4375 C 636.503906 584.53125 624.011719 574.945312 610.554688 566.765625 C 608.617188 565.535156 605.628906 566.238281 604.574219 568.347656 C 603.429688 570.371094 603.957031 573.007812 606.066406 574.328125 Z M 606.066406 574.328125 " fill-opacity="1" fill-rule="nonzero"/><path fill="#000000" d="M 481.15625 677.058594 C 486.875 693.769531 493.824219 710.128906 501.828125 725.957031 C 502.886719 727.980469 505.964844 728.773438 507.8125 727.542969 C 509.921875 726.222656 510.539062 723.761719 509.394531 721.5625 C 505.523438 713.910156 501.828125 706.082031 498.488281 698.253906 C 498.839844 699.046875 498.222656 697.550781 498.136719 697.375 C 497.960938 696.847656 497.695312 696.320312 497.519531 695.878906 C 497.167969 695 496.816406 694.121094 496.464844 693.152344 C 495.671875 691.128906 494.792969 689.019531 494 686.996094 C 492.503906 682.949219 491.011719 678.902344 489.601562 674.859375 C 488.898438 672.660156 486.523438 670.988281 484.148438 671.78125 C 482.125 672.394531 480.367188 674.769531 481.15625 677.058594 Z M 481.15625 677.058594 " fill-opacity="1" fill-rule="nonzero"/><path fill="#000000" d="M 304.789062 677.144531 C 298.894531 689.457031 292.210938 701.421875 284.820312 712.941406 C 283.589844 714.875 284.382812 717.867188 286.402344 718.921875 C 288.601562 720.066406 291.066406 719.449219 292.386719 717.339844 C 299.773438 705.816406 306.460938 693.855469 312.355469 681.542969 C 313.320312 679.433594 312.96875 676.707031 310.769531 675.5625 C 308.835938 674.507812 305.84375 674.945312 304.789062 677.144531 Z M 304.789062 677.144531 " fill-opacity="1" fill-rule="nonzero"/><path fill="#000000" d="M 175.394531 554.804688 C 162.375 562.71875 149.265625 570.460938 136.074219 578.023438 C 134.050781 579.167969 133.257812 582.070312 134.488281 584.003906 C 135.808594 586.027344 138.359375 586.816406 140.472656 585.585938 C 153.664062 578.109375 166.859375 570.371094 179.789062 562.367188 C 181.726562 561.136719 182.695312 558.410156 181.375 556.386719 C 180.144531 554.363281 177.503906 553.484375 175.394531 554.804688 Z M 175.394531 554.804688 " fill-opacity="1" fill-rule="nonzero"/><path fill="#000000" d="M 81.972656 395.257812 C 89.1875 392.707031 96.578125 390.683594 104.054688 389.1875 C 105.902344 388.835938 107.746094 388.484375 109.59375 388.132812 C 110.476562 387.957031 111.355469 387.871094 112.234375 387.695312 C 112.761719 387.605469 113.378906 387.519531 113.90625 387.429688 C 112.9375 387.519531 114.34375 387.34375 114.433594 387.34375 C 118.304688 386.816406 122.175781 386.550781 126.042969 386.285156 C 128.332031 386.199219 130.53125 384.351562 130.441406 381.890625 C 130.355469 379.601562 128.507812 377.316406 126.042969 377.492188 C 110.210938 378.371094 94.554688 381.449219 79.597656 386.726562 C 77.398438 387.519531 75.730469 389.804688 76.519531 392.179688 C 77.3125 394.289062 79.6875 396.050781 81.972656 395.257812 Z M 81.972656 395.257812 " fill-opacity="1" fill-rule="nonzero"/><path fill="#000000" d="M 117.601562 207.65625 C 118.566406 207.742188 119.625 207.917969 120.589844 208.007812 C 120.855469 208.007812 121.207031 208.09375 121.46875 208.09375 C 121.910156 208.183594 122.085938 208.183594 121.734375 208.09375 C 121.46875 208.09375 121.558594 208.09375 122 208.09375 C 122.261719 208.09375 122.613281 208.183594 122.878906 208.183594 C 124.726562 208.445312 126.574219 208.710938 128.417969 208.976562 C 132.378906 209.589844 136.25 210.292969 140.117188 210.996094 C 143.726562 211.703125 147.242188 212.316406 150.761719 213.195312 C 152.347656 213.636719 153.929688 214.074219 155.425781 214.691406 C 154.457031 214.339844 155.511719 214.78125 155.6875 214.867188 C 156.128906 215.042969 156.566406 215.308594 156.921875 215.570312 C 157.273438 215.746094 157.535156 215.921875 157.800781 216.097656 C 157.976562 216.1875 159.207031 217.15625 158.328125 216.449219 C 159.296875 217.242188 160.175781 217.769531 161.40625 217.769531 C 162.460938 217.769531 163.78125 217.332031 164.484375 216.449219 C 165.980469 214.867188 166.421875 211.789062 164.484375 210.207031 C 158.238281 205.191406 150.324219 203.960938 142.667969 202.554688 C 134.226562 200.972656 125.78125 199.652344 117.335938 198.683594 C 115.050781 198.421875 112.851562 200.882812 112.9375 203.082031 C 113.289062 205.898438 115.136719 207.304688 117.601562 207.65625 Z M 117.601562 207.65625 " fill-opacity="1" fill-rule="nonzero"/><path fill="#000000" d="M 120.679688 199.125 C 120.503906 198.773438 120.328125 198.507812 120.152344 198.15625 C 119.625 197.101562 120.414062 198.949219 120.0625 197.894531 C 119.886719 197.363281 119.710938 196.75 119.535156 196.222656 C 119.445312 195.871094 119.359375 195.519531 119.269531 195.167969 C 119.269531 194.992188 118.917969 193.847656 119.183594 194.902344 C 119.007812 194.199219 119.09375 193.40625 119.007812 192.792969 C 119.007812 192.175781 119.007812 191.558594 119.007812 191.03125 C 119.007812 190.679688 119.09375 190.328125 119.09375 189.976562 C 119.09375 189.800781 119.09375 188.570312 119.09375 189.714844 C 119.09375 188.394531 119.625 186.988281 119.976562 185.667969 C 120.328125 184.347656 120.765625 183.027344 121.207031 181.710938 C 121.46875 181.007812 121.734375 180.300781 122 179.597656 C 122.085938 179.335938 122.175781 179.160156 122.261719 178.894531 C 122.4375 178.457031 122.4375 178.457031 122.261719 178.894531 C 122.351562 178.632812 122.4375 178.457031 122.527344 178.191406 C 123.667969 175.464844 124.988281 172.828125 126.308594 170.1875 C 131.585938 159.546875 137.742188 149.253906 144.691406 139.582031 C 145.484375 138.4375 146.363281 137.292969 147.15625 136.238281 C 147.597656 135.621094 148.125 135.007812 148.5625 134.304688 C 149.089844 133.601562 148.738281 134.128906 148.5625 134.214844 C 148.914062 133.777344 149.179688 133.335938 149.53125 132.984375 C 151.378906 130.695312 153.226562 128.410156 155.160156 126.125 C 159.03125 121.636719 163.078125 117.242188 167.210938 113.019531 C 175.480469 104.574219 184.277344 96.746094 193.425781 89.273438 C 195.976562 87.160156 198.527344 85.136719 201.078125 83.113281 C 202.398438 82.058594 203.628906 81.09375 204.949219 80.125 C 205.566406 79.683594 204.15625 80.742188 205.125 79.949219 C 205.566406 79.597656 205.917969 79.332031 206.355469 78.980469 C 206.972656 78.542969 207.585938 78.015625 208.203125 77.574219 C 210.753906 75.640625 213.21875 73.617188 216.03125 72.03125 C 216.382812 71.855469 216.648438 71.679688 217 71.503906 C 217.175781 71.417969 218.582031 70.800781 217.617188 71.152344 C 218.320312 70.890625 219.023438 70.714844 219.640625 70.539062 C 220.695312 70.1875 218.757812 70.539062 219.816406 70.449219 C 220.167969 70.449219 220.519531 70.449219 220.871094 70.449219 C 221.925781 70.363281 220.078125 70.1875 221.046875 70.449219 C 221.222656 70.539062 222.628906 71.066406 221.664062 70.625 C 223.773438 71.59375 226.5 71.242188 227.644531 69.042969 C 228.699219 67.109375 228.257812 64.03125 226.058594 63.0625 C 222.71875 61.480469 219.109375 61.304688 215.59375 62.621094 C 212.601562 63.675781 210.050781 65.347656 207.5 67.195312 C 202.398438 71.066406 197.296875 74.933594 192.28125 78.980469 C 182.695312 86.632812 173.28125 94.726562 164.484375 103.34375 C 147.066406 120.671875 131.675781 140.722656 120.238281 163.0625 C 114.082031 175.023438 106.078125 190.328125 113.113281 203.609375 C 114.167969 205.632812 117.160156 206.425781 119.09375 205.191406 C 121.207031 203.785156 121.820312 201.324219 120.679688 199.125 Z M 120.679688 199.125 " fill-opacity="1" fill-rule="nonzero"/><path fill="#000000" d="M 229.667969 68.339844 C 229.753906 68.074219 229.929688 67.722656 230.019531 67.460938 C 230.371094 66.402344 229.578125 68.339844 230.105469 67.371094 C 230.371094 66.84375 230.632812 66.226562 230.898438 65.699219 C 231.515625 64.644531 232.128906 63.589844 232.921875 62.535156 C 233.097656 62.359375 233.539062 61.480469 233.007812 62.445312 C 233.183594 62.183594 233.449219 61.917969 233.625 61.742188 C 234.066406 61.304688 234.417969 60.773438 234.855469 60.335938 C 235.738281 59.457031 236.617188 58.578125 237.582031 57.695312 C 238.023438 57.257812 238.550781 56.90625 239.078125 56.464844 C 239.695312 55.9375 239.078125 56.464844 238.992188 56.554688 C 239.253906 56.378906 239.519531 56.203125 239.78125 55.9375 C 240.925781 55.144531 242.070312 54.355469 243.300781 53.5625 C 245.414062 52.242188 247.613281 51.011719 249.898438 49.867188 C 252.273438 48.636719 254.738281 47.582031 257.199219 46.527344 C 258.605469 45.910156 260.101562 45.296875 261.511719 44.679688 C 262.214844 44.328125 260.542969 45.03125 261.773438 44.59375 C 262.125 44.414062 262.566406 44.238281 262.917969 44.152344 C 263.796875 43.800781 264.675781 43.449219 265.554688 43.097656 C 271.449219 40.632812 277.519531 38.433594 283.5 36.238281 C 307.957031 27.527344 333.113281 21.195312 358.800781 17.152344 C 360.558594 16.886719 362.316406 16.621094 364.078125 16.359375 C 365.042969 16.183594 365.925781 16.09375 366.890625 15.917969 C 366.980469 15.917969 368.300781 15.742188 367.332031 15.832031 C 367.859375 15.742188 368.386719 15.65625 368.914062 15.65625 C 372.433594 15.214844 375.953125 14.777344 379.472656 14.425781 C 382.636719 14.074219 385.890625 13.632812 389.058594 13.71875 C 389.324219 13.71875 389.675781 13.808594 389.9375 13.808594 C 390.464844 13.898438 390.378906 13.808594 389.675781 13.71875 C 389.851562 13.71875 390.027344 13.808594 390.289062 13.808594 C 390.90625 13.898438 391.433594 14.074219 391.960938 14.25 C 392.839844 14.511719 391.171875 13.71875 391.960938 14.25 C 392.050781 14.335938 392.753906 14.863281 392.929688 14.863281 C 392.753906 14.777344 392.578125 14.601562 392.488281 14.511719 C 392.664062 14.601562 392.753906 14.777344 392.929688 14.863281 C 393.191406 15.214844 393.191406 15.128906 392.753906 14.601562 C 392.839844 14.777344 392.929688 14.953125 393.105469 15.039062 C 394.335938 16.976562 397.0625 17.941406 399.085938 16.621094 C 401.023438 15.390625 401.988281 12.664062 400.671875 10.640625 C 397.238281 5.011719 390.378906 4.484375 384.484375 5.101562 C 377.535156 5.71875 370.675781 6.507812 363.8125 7.476562 C 350.53125 9.324219 337.421875 11.785156 324.40625 14.863281 C 311.296875 18.03125 298.28125 21.722656 285.523438 26.121094 C 272.945312 30.429688 260.453125 35.179688 248.492188 40.808594 C 237.054688 46.085938 225.796875 53.5625 221.398438 65.964844 C 220.605469 68.164062 222.277344 70.890625 224.476562 71.417969 C 226.765625 72.03125 228.875 70.714844 229.667969 68.339844 Z M 229.667969 68.339844 " fill-opacity="1" fill-rule="nonzero"/><path fill="#000000" d="M 399.085938 18.910156 C 399.175781 18.820312 400.496094 17.589844 400.582031 17.589844 C 400.582031 17.589844 399.878906 18.117188 400.320312 17.765625 C 400.40625 17.679688 400.582031 17.589844 400.671875 17.503906 C 400.933594 17.328125 401.285156 17.0625 401.550781 16.886719 C 402.164062 16.535156 402.695312 16.183594 403.308594 15.832031 C 403.574219 15.65625 403.835938 15.566406 404.1875 15.390625 C 404.363281 15.304688 405.421875 14.863281 404.804688 15.128906 C 404.1875 15.304688 405.15625 15.039062 405.332031 14.953125 C 405.597656 14.863281 405.949219 14.777344 406.210938 14.601562 C 406.828125 14.425781 407.53125 14.160156 408.234375 13.984375 C 408.9375 13.808594 409.554688 13.632812 410.257812 13.542969 C 410.609375 13.457031 410.875 13.457031 411.226562 13.367188 C 411.402344 13.367188 411.578125 13.28125 411.664062 13.28125 C 412.28125 13.191406 411.753906 13.367188 411.488281 13.28125 C 412.019531 13.367188 412.898438 13.105469 413.425781 13.105469 C 414.128906 13.015625 414.832031 13.015625 415.535156 13.015625 C 417.03125 12.929688 418.4375 12.929688 419.933594 13.015625 C 422.835938 13.105469 425.652344 13.367188 428.46875 13.71875 C 429.082031 13.808594 429.785156 13.984375 430.402344 13.984375 C 430.3125 13.984375 429.523438 13.898438 430.136719 13.984375 C 430.3125 13.984375 430.578125 14.074219 430.753906 14.074219 C 431.28125 14.160156 431.722656 14.25 432.25 14.25 C 434.097656 14.511719 435.945312 14.777344 437.792969 15.039062 C 441.398438 15.566406 445.003906 16.09375 448.699219 16.710938 C 455.824219 17.855469 463.039062 19.171875 470.164062 20.492188 C 484.324219 23.21875 498.488281 26.210938 512.472656 29.902344 C 519.160156 31.664062 525.757812 33.6875 532.265625 36.148438 C 533.058594 36.414062 533.761719 36.765625 534.550781 37.027344 C 534.90625 37.203125 535.34375 37.292969 535.695312 37.46875 C 535.871094 37.554688 536.046875 37.644531 536.222656 37.730469 C 535.785156 37.554688 535.960938 37.644531 536.3125 37.730469 C 537.894531 38.433594 539.566406 39.140625 541.148438 39.929688 C 543.964844 41.335938 546.78125 42.832031 549.507812 44.414062 C 552.058594 46 554.519531 47.582031 556.894531 49.429688 C 557.160156 49.605469 557.6875 50.046875 557.070312 49.605469 C 557.335938 49.78125 557.597656 50.046875 557.863281 50.222656 C 558.480469 50.660156 559.007812 51.1875 559.621094 51.628906 C 560.765625 52.59375 561.910156 53.652344 562.964844 54.707031 C 565.078125 56.730469 567.097656 58.929688 568.945312 61.214844 C 569.210938 61.480469 569.5625 62.007812 569.121094 61.390625 C 569.296875 61.65625 569.5625 61.917969 569.738281 62.183594 C 570.179688 62.796875 570.617188 63.414062 571.058594 64.03125 C 571.9375 65.261719 572.730469 66.492188 573.433594 67.8125 C 574.136719 69.042969 574.839844 70.363281 575.457031 71.679688 C 576.421875 73.792969 579.589844 74.496094 581.4375 73.265625 C 583.550781 71.855469 584.078125 69.480469 583.019531 67.285156 C 577.480469 55.851562 568.332031 46.613281 557.953125 39.492188 C 546.515625 31.664062 533.410156 26.738281 520.125 22.957031 C 505.964844 18.910156 491.449219 15.832031 476.9375 12.929688 C 462.246094 10.027344 447.378906 7.5625 432.511719 5.542969 C 420.726562 3.957031 407.089844 2.636719 396.710938 9.585938 C 395.304688 10.464844 393.984375 11.523438 392.839844 12.664062 C 391.171875 14.25 391.082031 17.328125 392.839844 18.910156 C 394.6875 20.582031 397.328125 20.582031 399.085938 18.910156 Z M 399.085938 18.910156 " fill-opacity="1" fill-rule="nonzero"/><path fill="#000000" d="M 580.734375 78.980469 C 583.460938 79.332031 586.101562 79.949219 588.652344 80.742188 C 589.792969 81.09375 591.027344 81.445312 592.082031 82.058594 C 591.203125 81.621094 591.90625 81.972656 592.082031 82.058594 C 592.34375 82.148438 592.609375 82.324219 592.875 82.410156 C 593.578125 82.761719 594.28125 83.113281 594.984375 83.464844 C 597.269531 84.699219 599.46875 86.015625 601.667969 87.511719 C 602.109375 87.863281 602.636719 88.128906 603.078125 88.480469 C 603.339844 88.65625 603.605469 88.917969 603.867188 89.097656 C 604.835938 89.800781 603.164062 88.480469 604.042969 89.273438 C 605.101562 90.152344 606.15625 91.03125 607.210938 91.910156 C 611.257812 95.429688 614.953125 99.296875 618.382812 103.433594 C 619.175781 104.398438 620.054688 105.367188 620.847656 106.421875 C 621.285156 106.949219 621.726562 107.476562 622.164062 108.09375 C 622.253906 108.269531 622.957031 109.148438 622.339844 108.269531 C 622.605469 108.621094 622.867188 108.886719 623.046875 109.238281 C 624.804688 111.613281 626.5625 113.984375 628.234375 116.359375 C 635.007812 125.949219 641.253906 135.972656 646.796875 146.441406 C 649.609375 151.71875 652.25 156.996094 654.710938 162.449219 C 655.328125 163.765625 655.945312 165.175781 656.472656 166.492188 C 656.734375 167.109375 657 167.636719 657.261719 168.253906 C 657.4375 168.605469 657.527344 168.957031 657.703125 169.308594 C 657.878906 169.75 657.878906 169.75 657.703125 169.308594 C 657.792969 169.570312 657.878906 169.75 657.96875 170.011719 C 659.109375 172.738281 660.167969 175.464844 661.222656 178.191406 C 665.972656 190.59375 669.84375 203.433594 672.746094 216.363281 C 673.273438 218.648438 676 220.144531 678.199219 219.441406 C 680.574219 218.648438 681.804688 216.449219 681.277344 213.988281 C 675.910156 190.152344 667.378906 167.023438 656.121094 145.296875 C 650.578125 134.566406 644.421875 124.277344 637.558594 114.339844 C 631.050781 104.925781 624.101562 95.605469 615.65625 87.777344 C 606.597656 79.246094 595.511719 72.207031 582.933594 70.539062 C 581.703125 70.363281 580.644531 70.363281 579.503906 70.976562 C 578.621094 71.503906 577.742188 72.5625 577.480469 73.617188 C 577.128906 75.640625 578.269531 78.628906 580.734375 78.980469 Z M 580.734375 78.980469 " fill-opacity="1" fill-rule="nonzero"/><path fill="#000000" d="M 673.886719 223.3125 C 680.925781 233.511719 687.875 243.804688 693.769531 254.796875 C 695.175781 257.523438 696.582031 260.25 697.816406 263.066406 C 698.167969 263.769531 698.429688 264.5625 698.78125 265.265625 C 699.308594 266.496094 698.429688 264.472656 698.957031 265.703125 C 699.132812 266.054688 699.222656 266.40625 699.398438 266.847656 C 700.015625 268.34375 700.542969 269.835938 701.070312 271.332031 C 703.179688 277.226562 704.765625 283.207031 705.90625 289.363281 C 706.171875 290.859375 706.433594 292.265625 706.699219 293.761719 C 706.789062 294.550781 706.964844 295.34375 707.050781 296.136719 C 707.140625 296.488281 707.140625 296.839844 707.226562 297.101562 C 707.226562 297.277344 707.402344 298.6875 707.316406 297.71875 C 707.753906 300.796875 708.019531 303.964844 708.28125 307.042969 C 708.8125 313.460938 708.988281 319.792969 709.074219 326.214844 C 709.164062 339.054688 708.722656 351.898438 707.578125 364.652344 C 706.875 372.300781 706.171875 377.84375 704.765625 385.320312 C 703.445312 392.355469 701.683594 399.390625 699.488281 406.25 C 698.78125 408.449219 700.277344 411.175781 702.566406 411.703125 C 704.941406 412.234375 707.226562 411 708.019531 408.625 C 716.113281 383.648438 717.695312 356.910156 717.871094 330.789062 C 717.957031 317.773438 717.34375 304.667969 715.230469 291.824219 C 713.121094 279.074219 709.339844 266.757812 703.621094 255.0625 C 697.375 242.308594 689.371094 230.609375 681.453125 218.914062 C 680.132812 216.976562 677.496094 216.011719 675.472656 217.332031 C 673.625 218.472656 672.570312 221.289062 673.886719 223.3125 Z M 673.886719 223.3125 " fill-opacity="1" fill-rule="nonzero"/><path fill="#000000" d="M 699.132812 409.683594 C 700.71875 424.019531 701.332031 438.53125 700.804688 452.953125 C 700.542969 460.167969 700.015625 467.289062 699.222656 474.503906 C 699.046875 476.261719 698.78125 478.109375 698.605469 479.867188 C 698.519531 480.308594 698.519531 480.835938 698.429688 481.273438 C 698.429688 481.363281 698.34375 481.980469 698.429688 481.539062 C 698.519531 481.011719 698.429688 481.714844 698.429688 481.804688 C 698.34375 482.683594 698.167969 483.5625 698.078125 484.441406 C 697.550781 488.046875 696.933594 491.652344 696.320312 495.257812 C 693.769531 508.890625 690.339844 522.4375 685.851562 535.628906 C 684.796875 538.621094 683.742188 541.523438 682.597656 544.425781 C 682.332031 545.039062 682.070312 545.746094 681.804688 546.359375 C 681.628906 546.710938 681.542969 546.976562 681.367188 547.328125 C 681.277344 547.503906 681.191406 547.679688 681.191406 547.855469 C 681.191406 547.855469 680.75 548.910156 681.011719 548.296875 C 681.191406 547.765625 680.835938 548.734375 680.75 548.910156 C 680.574219 549.261719 680.484375 549.527344 680.308594 549.878906 C 679.957031 550.667969 679.605469 551.375 679.34375 552.164062 C 676.792969 557.707031 673.976562 563.160156 670.898438 568.347656 C 669.3125 570.898438 667.644531 573.449219 665.972656 575.910156 C 665.09375 577.144531 664.210938 578.375 663.332031 579.519531 C 662.980469 580.046875 663.773438 578.992188 663.421875 579.429688 C 663.332031 579.605469 663.246094 579.695312 663.070312 579.871094 C 662.894531 580.132812 662.628906 580.398438 662.453125 580.660156 C 661.925781 581.277344 661.398438 581.894531 660.871094 582.507812 C 657 587.082031 652.777344 591.390625 648.113281 595.261719 C 647.585938 595.703125 647.058594 596.140625 646.445312 596.582031 C 645.828125 597.109375 646.355469 596.667969 646.53125 596.492188 C 646.355469 596.582031 646.269531 596.667969 646.089844 596.84375 C 645.738281 597.109375 645.476562 597.371094 645.125 597.546875 C 643.277344 598.957031 642.132812 601.417969 643.539062 603.527344 C 644.683594 605.375 647.585938 606.605469 649.523438 605.113281 C 659.902344 597.460938 668.523438 587.960938 675.648438 577.230469 C 682.683594 566.589844 688.050781 554.980469 692.535156 543.105469 C 697.375 530.089844 701.070312 516.71875 703.796875 503.175781 C 706.789062 488.574219 708.722656 473.710938 709.601562 458.847656 C 710.394531 444.160156 710.128906 429.472656 708.808594 414.871094 C 708.632812 413.113281 708.457031 411.265625 708.28125 409.507812 C 708.019531 407.21875 706.433594 405.019531 703.882812 405.109375 C 701.332031 405.371094 698.78125 407.21875 699.132812 409.683594 Z M 699.132812 409.683594 " fill-opacity="1" fill-rule="nonzero"/><path fill="#000000" d="M 642.925781 601.417969 C 642.925781 602.914062 642.835938 604.320312 642.660156 605.816406 C 642.660156 605.992188 642.660156 606.167969 642.574219 606.34375 C 642.574219 606.34375 642.660156 605.550781 642.574219 605.992188 C 642.484375 606.34375 642.484375 606.695312 642.398438 607.046875 C 642.222656 607.839844 642.132812 608.628906 641.957031 609.421875 C 641.605469 610.828125 641.253906 612.238281 640.8125 613.554688 C 640.636719 614.171875 640.375 614.875 640.109375 615.492188 C 640.023438 615.84375 639.847656 616.105469 639.757812 616.457031 C 639.671875 616.632812 639.671875 616.808594 639.582031 616.898438 C 639.582031 616.984375 639.230469 617.6875 639.496094 617.160156 C 639.671875 616.632812 639.320312 617.601562 639.230469 617.777344 C 639.054688 618.128906 638.964844 618.394531 638.789062 618.746094 C 638.4375 619.449219 638.175781 620.0625 637.824219 620.769531 C 637.121094 622.085938 636.414062 623.40625 635.625 624.726562 C 634.128906 627.277344 632.371094 629.652344 630.609375 632.027344 C 631.050781 631.410156 630.609375 632.027344 630.433594 632.289062 C 630.171875 632.554688 629.996094 632.816406 629.730469 633.167969 C 629.203125 633.785156 628.761719 634.398438 628.234375 635.015625 C 627.265625 636.246094 626.210938 637.390625 625.15625 638.535156 C 623.132812 640.734375 621.023438 642.933594 618.910156 645.042969 C 614.511719 649.441406 609.851562 653.574219 605.1875 657.707031 C 600.4375 661.929688 595.601562 666.0625 590.585938 670.109375 C 589.355469 671.164062 588.035156 672.132812 586.714844 673.1875 C 586.101562 673.628906 585.484375 674.15625 584.957031 674.59375 C 584.691406 674.859375 584.339844 675.035156 584.078125 675.296875 C 583.726562 675.648438 584.164062 675.210938 584.253906 675.210938 C 584.078125 675.386719 583.8125 675.5625 583.636719 675.648438 C 581.175781 677.585938 578.621094 679.433594 576.070312 681.277344 C 565.78125 688.753906 555.046875 695.792969 543.875 701.949219 C 538.335938 705.027344 532.707031 707.929688 526.988281 710.566406 C 525.582031 711.269531 524.171875 711.886719 522.675781 712.503906 C 521.972656 712.765625 521.269531 713.117188 520.566406 713.382812 C 520.214844 713.558594 519.863281 713.644531 519.511719 713.820312 C 519.335938 713.910156 519.160156 713.996094 518.984375 714.085938 C 519.335938 713.910156 519.421875 713.910156 518.984375 714.085938 C 515.992188 715.316406 513.089844 716.460938 510.011719 717.601562 C 508.515625 718.132812 507.019531 718.660156 505.613281 719.1875 C 503.414062 719.976562 501.742188 722.265625 502.535156 724.640625 C 503.238281 726.75 505.613281 728.507812 507.988281 727.71875 C 520.390625 723.40625 532.53125 718.042969 544.140625 711.796875 C 555.578125 705.730469 566.570312 698.78125 577.128906 691.304688 C 587.945312 683.652344 598.328125 675.386719 608.265625 666.679688 C 617.765625 658.410156 627.265625 649.96875 635.273438 640.207031 C 643.453125 630.265625 649.960938 619.007812 651.457031 605.992188 C 651.632812 604.496094 651.722656 603 651.722656 601.417969 C 651.722656 599.132812 649.699219 596.933594 647.324219 597.019531 C 644.949219 597.109375 643.011719 598.957031 642.925781 601.417969 Z M 642.925781 601.417969 " fill-opacity="1" fill-rule="nonzero"/><path fill="#000000" d="M 282.359375 721.738281 C 291.066406 734.929688 305.40625 742.40625 319.128906 749.355469 C 327.132812 753.398438 335.136719 757.359375 343.492188 760.613281 C 351.9375 763.867188 360.644531 766.066406 369.707031 767.03125 C 378.679688 768 387.652344 767.734375 396.625 767.121094 C 404.804688 766.503906 412.898438 765.625 420.988281 764.480469 C 435.769531 762.371094 450.546875 759.203125 464.621094 754.015625 C 478.871094 748.738281 492.328125 741.351562 503.765625 731.234375 C 505.171875 730.003906 506.492188 728.773438 507.8125 727.453125 C 509.484375 725.871094 509.570312 722.792969 507.8125 721.210938 C 506.050781 719.625 503.324219 719.449219 501.566406 721.210938 C 499.015625 723.761719 496.289062 726.132812 493.386719 728.421875 C 493.121094 728.683594 492.328125 729.214844 493.03125 728.683594 C 492.679688 728.949219 492.328125 729.214844 491.976562 729.476562 C 491.273438 730.003906 490.480469 730.53125 489.777344 731.058594 C 488.28125 732.117188 486.789062 733.171875 485.203125 734.136719 C 482.214844 736.074219 479.132812 737.746094 475.96875 739.414062 C 474.296875 740.296875 472.714844 741.085938 471.042969 741.789062 C 470.339844 742.140625 469.546875 742.492188 468.84375 742.757812 C 468.402344 742.933594 467.964844 743.109375 467.613281 743.285156 C 468.578125 742.933594 467.171875 743.460938 466.90625 743.550781 C 453.359375 749.089844 439.109375 752.609375 424.683594 754.894531 C 422.835938 755.160156 420.988281 755.511719 419.144531 755.773438 C 418.703125 755.863281 418.351562 755.863281 417.910156 755.949219 C 417.648438 755.949219 417.472656 756.039062 417.207031 756.039062 C 417.382812 756.039062 418.175781 755.949219 417.296875 756.039062 C 416.328125 756.125 415.449219 756.300781 414.480469 756.390625 C 410.875 756.828125 407.265625 757.183594 403.660156 757.535156 C 394.863281 758.324219 385.980469 758.941406 377.183594 758.589844 C 374.984375 758.5 372.875 758.324219 370.675781 758.148438 C 369.617188 758.0625 368.5625 757.886719 367.507812 757.796875 C 368.300781 757.886719 367.59375 757.796875 367.417969 757.796875 C 367.15625 757.796875 366.890625 757.710938 366.628906 757.710938 C 366.101562 757.621094 365.484375 757.535156 364.957031 757.445312 C 360.734375 756.742188 356.511719 755.6875 352.378906 754.367188 C 350.355469 753.75 348.417969 753.046875 346.394531 752.257812 C 345.339844 751.90625 344.371094 751.464844 343.40625 751.023438 C 342.964844 750.847656 342.527344 750.671875 342.085938 750.496094 C 341.46875 750.234375 342.613281 750.761719 341.996094 750.496094 C 341.644531 750.320312 341.382812 750.234375 341.03125 750.058594 C 337.160156 748.386719 333.378906 746.539062 329.59375 744.691406 C 322.644531 741.261719 315.609375 737.746094 308.921875 733.785156 C 307.339844 732.820312 305.84375 731.851562 304.261719 730.882812 C 303.558594 730.355469 302.851562 729.917969 302.0625 729.390625 C 301.710938 729.125 301.269531 728.859375 300.917969 728.597656 C 300.65625 728.421875 299.6875 727.628906 300.390625 728.246094 C 297.574219 725.957031 294.847656 723.585938 292.472656 720.769531 C 292.210938 720.503906 291.945312 720.152344 291.683594 719.800781 C 291.507812 719.625 291.417969 719.449219 291.242188 719.273438 C 291.859375 719.976562 291.417969 719.539062 291.332031 719.363281 C 290.800781 718.570312 290.273438 717.867188 289.746094 717.074219 C 288.515625 715.140625 285.789062 714.171875 283.765625 715.492188 C 282.007812 716.988281 281.039062 719.714844 282.359375 721.738281 Z M 282.359375 721.738281 " fill-opacity="1" fill-rule="nonzero"/><path fill="#000000" d="M 135.191406 585.585938 C 136.601562 599.835938 142.140625 613.027344 149.53125 625.164062 C 156.65625 636.863281 165.1875 647.769531 174.160156 658.148438 C 182.695312 668.085938 192.019531 677.320312 202.308594 685.5 C 212.777344 693.855469 224.039062 701.066406 236.351562 706.519531 C 250.25 712.589844 264.941406 716.460938 279.632812 719.890625 C 281.476562 720.328125 283.238281 720.769531 285.085938 721.121094 C 287.285156 721.648438 289.921875 720.417969 290.539062 718.042969 C 291.066406 715.757812 289.835938 713.207031 287.460938 712.589844 C 273.210938 709.246094 258.785156 705.992188 245.148438 700.628906 C 244.355469 700.363281 243.652344 700.011719 242.863281 699.75 C 242.597656 699.660156 242.332031 699.574219 242.070312 699.398438 C 242.070312 699.398438 241.453125 699.132812 241.804688 699.308594 C 242.246094 699.484375 241.628906 699.222656 241.542969 699.222656 C 241.277344 699.132812 241.015625 699.046875 240.75 698.871094 C 239.253906 698.164062 237.757812 697.550781 236.265625 696.757812 C 233.363281 695.351562 230.546875 693.855469 227.820312 692.273438 C 222.277344 689.105469 216.910156 685.5 211.808594 681.71875 C 211.546875 681.542969 211.195312 681.277344 210.929688 681.101562 C 210.667969 680.925781 209.875 680.3125 210.578125 680.839844 C 209.875 680.3125 209.257812 679.785156 208.554688 679.257812 C 207.324219 678.289062 206.09375 677.320312 204.949219 676.265625 C 202.484375 674.15625 200.023438 672.042969 197.648438 669.757812 C 192.984375 665.359375 188.5 660.785156 184.1875 656.035156 C 179.878906 651.199219 175.65625 646.273438 171.699219 641.171875 C 171.433594 640.820312 171.171875 640.46875 170.90625 640.207031 C 170.730469 639.941406 170.203125 639.324219 170.730469 639.941406 C 170.203125 639.238281 169.675781 638.621094 169.234375 637.917969 C 168.269531 636.597656 167.210938 635.28125 166.246094 633.871094 C 164.222656 631.144531 162.285156 628.417969 160.4375 625.605469 C 156.65625 619.976562 153.226562 614.082031 150.410156 607.925781 C 150.058594 607.222656 149.796875 606.519531 149.53125 605.816406 C 149.265625 605.199219 149.796875 606.429688 149.53125 605.816406 C 149.441406 605.640625 149.355469 605.464844 149.355469 605.289062 C 149.179688 604.847656 149.003906 604.496094 148.828125 604.058594 C 148.210938 602.472656 147.683594 600.890625 147.15625 599.308594 C 146.101562 596.140625 145.308594 592.976562 144.691406 589.71875 C 144.515625 588.929688 144.429688 588.136719 144.339844 587.347656 C 144.515625 588.226562 144.339844 587.171875 144.253906 586.816406 C 144.164062 586.378906 144.164062 585.9375 144.078125 585.5 C 143.8125 583.210938 142.230469 581.011719 139.679688 581.101562 C 137.390625 581.277344 134.929688 583.125 135.191406 585.585938 Z M 135.191406 585.585938 " fill-opacity="1" fill-rule="nonzero"/><path fill="#000000" d="M 74.144531 394.378906 C 70.980469 421.46875 73.792969 448.996094 80.832031 475.292969 C 87.605469 500.710938 98.421875 524.988281 111.617188 547.679688 C 118.917969 560.34375 127.011719 572.570312 135.632812 584.355469 C 136.953125 586.203125 139.503906 587.347656 141.613281 585.9375 C 143.460938 584.796875 144.605469 581.894531 143.199219 579.957031 C 128.15625 559.199219 114.609375 537.214844 104.054688 513.816406 C 103.4375 512.410156 102.734375 510.914062 102.117188 509.507812 C 101.765625 508.804688 101.503906 508.101562 101.152344 507.308594 C 100.621094 506.078125 101.503906 508.101562 100.972656 506.871094 C 100.796875 506.339844 100.535156 505.902344 100.359375 505.375 C 99.128906 502.472656 97.984375 499.480469 96.929688 496.578125 C 94.640625 490.335938 92.53125 484 90.683594 477.667969 C 88.835938 471.25 87.253906 464.652344 85.933594 458.054688 C 85.316406 454.800781 84.699219 451.636719 84.171875 448.382812 C 84.085938 447.589844 83.910156 446.796875 83.820312 445.917969 C 83.734375 445.480469 83.734375 445.125 83.644531 444.6875 C 83.644531 444.597656 83.46875 443.28125 83.558594 444.246094 C 83.382812 442.578125 83.117188 440.992188 82.941406 439.320312 C 81.269531 424.371094 81.269531 409.242188 82.941406 394.289062 C 83.207031 392.003906 80.742188 389.804688 78.542969 389.894531 C 75.992188 390.070312 74.410156 391.914062 74.144531 394.378906 Z M 74.144531 394.378906 " fill-opacity="1" fill-rule="nonzero"/><path fill="#000000" d="M 82.0625 389.101562 C 79.863281 382.503906 78.015625 375.820312 76.433594 368.960938 C 75.640625 365.53125 74.9375 362.1875 74.320312 358.757812 C 74.058594 357.085938 73.707031 355.414062 73.441406 353.746094 C 73.355469 352.953125 73.179688 352.160156 73.089844 351.28125 C 73 350.84375 72.914062 350.3125 72.914062 349.875 C 72.824219 349.347656 72.914062 349.960938 72.914062 350.050781 C 72.914062 349.785156 72.824219 349.523438 72.824219 349.257812 C 71.066406 335.539062 70.714844 321.640625 71.945312 307.832031 C 72.121094 306.074219 72.296875 304.316406 72.472656 302.554688 C 72.5625 302.117188 72.5625 301.765625 72.648438 301.324219 C 72.648438 301.148438 72.738281 300.886719 72.738281 300.710938 C 72.738281 300.796875 72.648438 301.414062 72.738281 300.886719 C 72.824219 300.003906 73 299.125 73.089844 298.246094 C 73.617188 294.992188 74.144531 291.824219 74.847656 288.660156 C 76.082031 282.765625 77.664062 276.960938 79.597656 271.246094 C 80.566406 268.34375 81.621094 265.527344 82.679688 262.714844 C 82.941406 262.097656 83.207031 261.394531 83.46875 260.777344 C 83.644531 260.425781 83.910156 259.8125 83.558594 260.515625 C 83.734375 260.074219 83.910156 259.636719 84.085938 259.195312 C 84.699219 257.875 85.316406 256.46875 85.933594 255.148438 C 88.484375 249.695312 91.386719 244.417969 94.554688 239.320312 C 96.136719 236.769531 97.808594 234.304688 99.566406 231.84375 C 100.445312 230.609375 101.328125 229.46875 102.207031 228.324219 C 102.46875 227.882812 102.117188 228.5 102.03125 228.5 C 102.117188 228.324219 102.207031 228.238281 102.382812 228.058594 C 102.558594 227.796875 102.820312 227.53125 102.996094 227.269531 C 103.527344 226.652344 104.054688 225.949219 104.582031 225.332031 C 108.363281 220.671875 112.496094 216.363281 116.894531 212.230469 C 117.953125 211.261719 119.09375 210.207031 120.152344 209.238281 C 121.910156 207.742188 121.820312 204.578125 120.152344 202.992188 C 118.304688 201.324219 115.753906 201.410156 113.90625 202.992188 C 104.492188 211.171875 96.3125 220.671875 89.363281 230.964844 C 82.414062 241.339844 76.785156 252.597656 72.472656 264.296875 C 67.988281 276.523438 65.085938 289.1875 63.5 302.027344 C 61.832031 315.925781 61.832031 330.085938 63.238281 343.980469 C 64.734375 358.316406 67.636719 372.476562 71.769531 386.199219 C 72.296875 387.871094 72.824219 389.628906 73.355469 391.300781 C 74.058594 393.5 76.433594 395.171875 78.808594 394.378906 C 81.183594 393.851562 82.855469 391.476562 82.0625 389.101562 Z M 82.0625 389.101562 " fill-opacity="1" fill-rule="nonzero"/></svg>