<svg xmlns="http://www.w3.org/2000/svg" xmlns:xlink="http://www.w3.org/1999/xlink" width="1024" zoomAndPan="magnify" viewBox="0 0 768 767.999994" height="1024" preserveAspectRatio="xMidYMid meet" version="1.0"><defs><clipPath id="5f5a058639"><path d="M 76 76 L 692 76 L 692 691 L 76 691 Z M 76 76 " clip-rule="nonzero"/></clipPath><clipPath id="5f0231825f"><path d="M 383.996094 76.800781 L 691.058594 383.863281 L 383.996094 690.925781 L 76.933594 383.863281 Z M 383.996094 76.800781 " clip-rule="nonzero"/></clipPath><clipPath id="dd04347bf9"><path d="M 383.996094 76.800781 L 691.058594 383.863281 L 383.996094 690.925781 L 76.933594 383.863281 Z M 383.996094 76.800781 " clip-rule="nonzero"/></clipPath><clipPath id="d04b55df88"><path d="M 383.996094 76.800781 L 691.058594 383.863281 L 383.996094 690.925781 L 76.933594 383.863281 Z M 383.996094 76.800781 " clip-rule="nonzero"/></clipPath><clipPath id="96cd255284"><path d="M 101 101 L 667 101 L 667 667 L 101 667 Z M 101 101 " clip-rule="nonzero"/></clipPath><clipPath id="335fea0c74"><path d="M 383.996094 101.820312 L 666.132812 383.957031 L 383.996094 666.09375 L 101.863281 383.957031 Z M 383.996094 101.820312 " clip-rule="nonzero"/></clipPath><clipPath id="dcf5968379"><path d="M 383.996094 101.820312 L 666.132812 383.957031 L 383.996094 666.09375 L 101.863281 383.957031 Z M 383.996094 101.820312 " clip-rule="nonzero"/></clipPath><clipPath id="3bd45aaf26"><path d="M 175 175 L 593 175 L 593 594 L 175 594 Z M 175 175 " clip-rule="nonzero"/></clipPath><clipPath id="02a03a586d"><path d="M 384 175.316406 L 592.949219 384.265625 L 384 593.214844 L 175.050781 384.265625 Z M 384 175.316406 " clip-rule="nonzero"/></clipPath><clipPath id="c7dd1dae2c"><path d="M 384 175.316406 L 592.949219 384.265625 L 384 593.214844 L 175.050781 384.265625 Z M 384 175.316406 " clip-rule="nonzero"/></clipPath><clipPath id="935a16e498"><path d="M 384 175.316406 L 592.949219 384.265625 L 384 593.214844 L 175.050781 384.265625 Z M 384 175.316406 " clip-rule="nonzero"/></clipPath></defs><g clip-path="url(#5f5a058639)"><g clip-path="url(#5f0231825f)"><g clip-path="url(#dd04347bf9)"><g clip-path="url(#d04b55df88)"><path fill="#000000" d="M 383.996094 76.800781 L 691.015625 383.820312 L 383.996094 690.839844 L 76.976562 383.820312 Z M 383.996094 76.800781 " fill-opacity="1" fill-rule="nonzero"/></g></g></g></g><g clip-path="url(#96cd255284)"><g clip-path="url(#335fea0c74)"><g clip-path="url(#dcf5968379)"><path fill="#ffffff" d="M 383.996094 101.820312 L 666.136719 383.960938 L 383.996094 666.097656 L 101.859375 383.960938 Z M 383.996094 101.820312 " fill-opacity="1" fill-rule="nonzero"/></g></g></g><g clip-path="url(#3bd45aaf26)"><g clip-path="url(#02a03a586d)"><g clip-path="url(#c7dd1dae2c)"><g clip-path="url(#935a16e498)"><path fill="#000000" d="M 384 175.316406 L 592.921875 384.238281 L 384 593.160156 L 175.078125 384.238281 Z M 384 175.316406 " fill-opacity="1" fill-rule="nonzero"/></g></g></g></g></svg>